<svg width="40" height="52" viewBox="0 0 40 52" fill="none" xmlns="http://www.w3.org/2000/svg">
<g clip-path="url(#clip0_38_362)">
<path d="M16.5902 0C12.1902 0 7.9704 1.74619 4.85914 4.85444C1.74789 7.96268 0 12.1784 0 16.5741L0 51.337H22.4706C24.6491 51.3374 26.8064 50.9091 28.8191 50.0766C30.8319 49.244 32.6608 48.0235 34.2014 46.4847C35.742 44.9459 36.9641 43.119 37.7979 41.1083C38.6316 39.0977 39.0608 36.9426 39.0608 34.7662V0H16.5902ZM33.5877 11.359H16.6394C15.2454 11.359 13.9084 11.9122 12.9227 12.897C11.9369 13.8818 11.3831 15.2175 11.3831 16.6102V22.7213H22.4213C23.8154 22.7213 25.1524 22.168 26.1381 21.1832C27.1238 20.1984 27.6776 18.8628 27.6776 17.4701C27.6759 17.033 27.7608 16.5999 27.9274 16.1957C28.094 15.7916 28.3391 15.4244 28.6485 15.1153C28.9578 14.8062 29.3254 14.5614 29.7299 14.395C30.1345 14.2285 30.568 14.1437 31.0055 14.1454H33.5877V34.7629C33.5877 37.7085 32.4164 40.5334 30.3316 42.6163C28.2467 44.6991 25.419 45.8692 22.4706 45.8692H5.46982V39.978H22.4213C23.8154 39.978 25.1524 39.4248 26.1381 38.44C27.1238 37.4552 27.6776 36.1195 27.6776 34.7268V28.6157H16.6394C15.2454 28.6157 13.9084 29.169 12.9227 30.1538C11.9369 31.1386 11.3831 32.4742 11.3831 33.8669C11.3831 34.7452 11.0339 35.5875 10.4123 36.2086C9.79064 36.8296 8.94752 37.1785 8.0684 37.1785H5.46982V16.5741C5.47069 13.6279 6.64258 10.8027 8.72785 8.7194C10.8131 6.63615 13.6411 5.4654 16.5902 5.46453H33.5877V11.359Z" fill="#EE217C"/>
</g>
<defs>
<clipPath id="clip0_38_362">
<rect width="39.0608" height="51.337" fill="white"/>
</clipPath>
</defs>
</svg>
