<svg width="203" height="52" viewBox="0 0 203 52" fill="none" xmlns="http://www.w3.org/2000/svg">
<g clip-path="url(#clip0_38_361)">
<path d="M16.5902 0C12.1902 0 7.9704 1.74619 4.85914 4.85444C1.74789 7.96268 0 12.1784 0 16.5741L0 51.337H22.4706C24.6491 51.3374 26.8064 50.9091 28.8191 50.0766C30.8319 49.244 32.6608 48.0235 34.2014 46.4847C35.742 44.9459 36.9641 43.119 37.7979 41.1083C38.6316 39.0977 39.0608 36.9426 39.0608 34.7662V0H16.5902ZM33.5877 11.359H16.6394C15.2454 11.359 13.9084 11.9122 12.9227 12.897C11.9369 13.8818 11.3831 15.2175 11.3831 16.6102V22.7213H22.4213C23.8154 22.7213 25.1524 22.168 26.1381 21.1832C27.1238 20.1984 27.6776 18.8628 27.6776 17.4701C27.6759 17.033 27.7608 16.5999 27.9274 16.1957C28.094 15.7916 28.3391 15.4244 28.6485 15.1153C28.9578 14.8062 29.3254 14.5614 29.7299 14.395C30.1345 14.2285 30.568 14.1437 31.0055 14.1454H33.5877V34.7629C33.5877 37.7085 32.4164 40.5334 30.3316 42.6163C28.2467 44.6991 25.419 45.8692 22.4706 45.8692H5.46982V39.978H22.4213C23.8154 39.978 25.1524 39.4248 26.1381 38.44C27.1238 37.4552 27.6776 36.1195 27.6776 34.7268V28.6157H16.6394C15.2454 28.6157 13.9084 29.169 12.9227 30.1538C11.9369 31.1386 11.3831 32.4742 11.3831 33.8669C11.3831 34.7452 11.0339 35.5875 10.4123 36.2086C9.79064 36.8296 8.94752 37.1785 8.0684 37.1785H5.46982V16.5741C5.47069 13.6279 6.64258 10.8027 8.72785 8.7194C10.8131 6.63615 13.6411 5.4654 16.5902 5.46453H33.5877V11.359Z" fill="#EE217C"/>
</g>
<path d="M55.7549 39.0689C53.7785 39.0689 52.0812 38.7317 50.6629 38.0574C49.2678 37.3831 48.0006 36.3717 46.8613 35.0232L50.0002 31.8842C50.721 32.8375 51.5581 33.5816 52.5114 34.1164C53.4647 34.6279 54.6272 34.8836 55.999 34.8836C57.2314 34.8836 58.2079 34.6395 58.9287 34.1512C59.6727 33.663 60.0447 32.9887 60.0447 32.1284C60.0447 31.3843 59.8355 30.7798 59.417 30.3148C58.9984 29.8498 58.4404 29.4545 57.7429 29.129C57.0686 28.8035 56.3129 28.5128 55.4759 28.2571C54.6621 27.978 53.8367 27.6642 52.9996 27.3154C52.1858 26.9666 51.4302 26.5365 50.7326 26.0249C50.0584 25.4902 49.512 24.8159 49.0934 24.0021C48.6749 23.165 48.4657 22.1187 48.4657 20.8632C48.4657 19.3751 48.826 18.1079 49.5468 17.0616C50.2676 16.0153 51.2558 15.2131 52.5114 14.6551C53.7669 14.0971 55.1852 13.8181 56.7663 13.8181C58.4404 13.8181 59.9517 14.132 61.3003 14.7597C62.6489 15.3875 63.7533 16.2013 64.6136 17.2011L61.4747 20.34C60.7539 19.5495 60.0099 18.9682 59.2426 18.5962C58.4985 18.2242 57.6499 18.0382 56.6966 18.0382C55.6038 18.0382 54.7435 18.2474 54.1157 18.6659C53.4879 19.0845 53.174 19.689 53.174 20.4795C53.174 21.1538 53.3833 21.7002 53.8018 22.1187C54.2203 22.5373 54.7667 22.8977 55.441 23.1999C56.1385 23.5022 56.8942 23.7928 57.708 24.0718C58.545 24.3509 59.3705 24.6647 60.1843 25.0135C61.0213 25.3623 61.777 25.8157 62.4512 26.3737C63.1488 26.9317 63.7068 27.6525 64.1253 28.5361C64.5439 29.3964 64.7531 30.4659 64.7531 31.7447C64.7531 34.0234 63.9509 35.8137 62.3466 37.1158C60.7423 38.4178 58.545 39.0689 55.7549 39.0689ZM79.3433 38.7201V29.0592C79.3433 28.0594 79.0294 27.2456 78.4017 26.6178C77.7739 25.9901 76.9601 25.6762 75.9603 25.6762C75.3092 25.6762 74.728 25.8157 74.2164 26.0947C73.7049 26.3737 73.298 26.769 72.9958 27.2805C72.7167 27.792 72.5772 28.3849 72.5772 29.0592L70.7985 28.1524C70.7985 26.8271 71.0775 25.6762 71.6356 24.6996C72.1936 23.6998 72.9609 22.9209 73.9374 22.3629C74.9372 21.8048 76.0765 21.5258 77.3553 21.5258C78.6342 21.5258 79.7618 21.8048 80.7384 22.3629C81.7382 22.9209 82.5171 23.6882 83.0751 24.6647C83.6332 25.6413 83.9122 26.769 83.9122 28.0478V38.7201H79.3433ZM68.0084 38.7201V13.5042H72.5772V38.7201H68.0084ZM94.6376 39.0689C93.103 39.0689 91.7196 38.6852 90.4873 37.9179C89.255 37.1506 88.29 36.1043 87.5925 34.779C86.895 33.4537 86.5462 31.9656 86.5462 30.3148C86.5462 28.6407 86.895 27.141 87.5925 25.8157C88.29 24.4904 89.255 23.4441 90.4873 22.6768C91.7196 21.9095 93.103 21.5258 94.6376 21.5258C95.8467 21.5258 96.9279 21.77 97.8812 22.2582C98.8345 22.7465 99.5901 23.4324 100.148 24.316C100.729 25.1763 101.043 26.1528 101.09 27.2456V33.3142C101.043 34.4302 100.729 35.4184 100.148 36.2787C99.5901 37.139 98.8345 37.8249 97.8812 38.3364C96.9279 38.8247 95.8467 39.0689 94.6376 39.0689ZM95.4747 34.8488C96.7535 34.8488 97.7882 34.4302 98.5787 33.5932C99.3692 32.7329 99.7645 31.6285 99.7645 30.2799C99.7645 29.3964 99.5785 28.6174 99.2065 27.9432C98.8577 27.2456 98.3578 26.7109 97.7068 26.3388C97.079 25.9436 96.335 25.7459 95.4747 25.7459C94.6376 25.7459 93.8936 25.9436 93.2425 26.3388C92.6148 26.7109 92.1149 27.2456 91.7428 27.9432C91.3941 28.6174 91.2197 29.3964 91.2197 30.2799C91.2197 31.1867 91.3941 31.9889 91.7428 32.6864C92.1149 33.3607 92.6148 33.8955 93.2425 34.2907C93.8936 34.6628 94.6376 34.8488 95.4747 34.8488ZM99.5204 38.7201V34.1861L100.253 30.0706L99.5204 26.0249V21.8746H104.054V38.7201H99.5204ZM108.096 38.7201V21.8746H112.665V38.7201H108.096ZM112.665 29.408L110.886 28.2222C111.096 26.1528 111.7 24.5252 112.7 23.3394C113.7 22.1304 115.141 21.5258 117.025 21.5258C117.838 21.5258 118.571 21.6653 119.222 21.9444C119.873 22.2001 120.466 22.6303 121.001 23.2348L118.141 26.5132C117.885 26.2342 117.571 26.0249 117.199 25.8854C116.85 25.7459 116.443 25.6762 115.978 25.6762C115.002 25.6762 114.2 25.9901 113.572 26.6178C112.967 27.2224 112.665 28.1524 112.665 29.408ZM130.185 39.0689C128.418 39.0689 126.849 38.6968 125.477 37.9528C124.105 37.1855 123.012 36.1392 122.198 34.8139C121.408 33.4886 121.013 31.9772 121.013 30.2799C121.013 28.6058 121.396 27.1177 122.164 25.8157C122.954 24.4904 124.024 23.4441 125.372 22.6768C126.721 21.8862 128.221 21.491 129.871 21.491C131.499 21.491 132.929 21.863 134.161 22.607C135.417 23.3278 136.393 24.3276 137.091 25.6064C137.812 26.862 138.172 28.2919 138.172 29.8963C138.172 30.1985 138.149 30.5124 138.102 30.8379C138.079 31.1402 138.021 31.489 137.928 31.8842L123.768 31.9191V28.5012L135.8 28.4663L133.952 29.8963C133.905 28.8965 133.719 28.0594 133.394 27.3851C133.092 26.7109 132.638 26.1993 132.034 25.8506C131.452 25.4785 130.732 25.2925 129.871 25.2925C128.965 25.2925 128.174 25.5018 127.5 25.9203C126.825 26.3156 126.302 26.8852 125.93 27.6293C125.581 28.3501 125.407 29.2104 125.407 30.2102C125.407 31.2332 125.593 32.1284 125.965 32.8957C126.36 33.6397 126.918 34.221 127.639 34.6395C128.36 35.0348 129.197 35.2324 130.15 35.2324C131.011 35.2324 131.79 35.0929 132.487 34.8139C133.185 34.5116 133.789 34.0699 134.301 33.4886L136.986 36.1741C136.172 37.1274 135.173 37.8482 133.987 38.3364C132.824 38.8247 131.557 39.0689 130.185 39.0689ZM144.974 38.7201V34.8488H151.356C152.495 34.8488 153.379 34.5 154.007 33.8025C154.658 33.1049 154.983 32.2795 154.983 31.3262C154.983 30.6752 154.844 30.0823 154.565 29.5475C154.286 29.0127 153.867 28.5942 153.309 28.2919C152.774 27.9664 152.123 27.8037 151.356 27.8037H144.974V23.9672H150.833C151.809 23.9672 152.588 23.7231 153.17 23.2348C153.774 22.7465 154.076 22.0141 154.076 21.0376C154.076 20.0378 153.774 19.2937 153.17 18.8054C152.588 18.3172 151.809 18.073 150.833 18.073H144.974V14.2017H151.391C153.018 14.2017 154.379 14.504 155.471 15.1085C156.588 15.6898 157.425 16.4687 157.983 17.4453C158.541 18.3986 158.82 19.4449 158.82 20.5842C158.82 21.9792 158.389 23.1883 157.529 24.2113C156.692 25.2111 155.46 25.9552 153.832 26.4435L154.042 24.9089C155.855 25.4204 157.25 26.2691 158.227 27.4549C159.227 28.6174 159.726 30.0241 159.726 31.675C159.726 32.977 159.401 34.1629 158.75 35.2324C158.122 36.2787 157.192 37.1274 155.96 37.7784C154.751 38.4062 153.274 38.7201 151.53 38.7201H144.974ZM141.486 38.7201V14.2017H146.194V38.7201H141.486ZM163 38.7201V21.8746H167.604V38.7201H163ZM165.302 19.1542C164.558 19.1542 163.942 18.9101 163.453 18.4218C162.965 17.9103 162.721 17.2825 162.721 16.5385C162.721 15.8177 162.965 15.2015 163.453 14.69C163.942 14.1785 164.558 13.9227 165.302 13.9227C166.069 13.9227 166.685 14.1785 167.15 14.69C167.639 15.2015 167.883 15.8177 167.883 16.5385C167.883 17.2825 167.639 17.9103 167.15 18.4218C166.685 18.9101 166.069 19.1542 165.302 19.1542ZM174.127 38.7201V14.8644H178.696V38.7201H174.127ZM170.186 25.8854V21.8746H182.637V25.8854H170.186ZM192.854 39.0689C191.087 39.0689 189.518 38.6968 188.146 37.9528C186.774 37.1855 185.681 36.1392 184.868 34.8139C184.077 33.4886 183.682 31.9772 183.682 30.2799C183.682 28.6058 184.066 27.1177 184.833 25.8157C185.623 24.4904 186.693 23.4441 188.041 22.6768C189.39 21.8862 190.89 21.491 192.541 21.491C194.168 21.491 195.598 21.863 196.83 22.607C198.086 23.3278 199.063 24.3276 199.76 25.6064C200.481 26.862 200.841 28.2919 200.841 29.8963C200.841 30.1985 200.818 30.5124 200.771 30.8379C200.748 31.1402 200.69 31.489 200.597 31.8842L186.437 31.9191V28.5012L198.47 28.4663L196.621 29.8963C196.575 28.8965 196.389 28.0594 196.063 27.3851C195.761 26.7109 195.307 26.1993 194.703 25.8506C194.122 25.4785 193.401 25.2925 192.541 25.2925C191.634 25.2925 190.843 25.5018 190.169 25.9203C189.495 26.3156 188.972 26.8852 188.599 27.6293C188.251 28.3501 188.076 29.2104 188.076 30.2102C188.076 31.2332 188.262 32.1284 188.634 32.8957C189.03 33.6397 189.588 34.221 190.308 34.6395C191.029 35.0348 191.866 35.2324 192.82 35.2324C193.68 35.2324 194.459 35.0929 195.156 34.8139C195.854 34.5116 196.458 34.0699 196.97 33.4886L199.655 36.1741C198.842 37.1274 197.842 37.8482 196.656 38.3364C195.493 38.8247 194.226 39.0689 192.854 39.0689Z" fill="#1E1E1E"/>
<defs>
<clipPath id="clip0_38_361">
<rect width="39.0608" height="51.337" fill="white"/>
</clipPath>
</defs>
</svg>
