<svg width="203" height="52" viewBox="0 0 203 52" fill="none" xmlns="http://www.w3.org/2000/svg">
<g clip-path="url(#clip0_49_608)">
<path d="M16.5902 0C12.1902 0 7.9704 1.74619 4.85914 4.85444C1.74789 7.96268 0 12.1784 0 16.5741L0 51.337H22.4706C24.6491 51.3374 26.8064 50.9091 28.8191 50.0766C30.8319 49.244 32.6608 48.0235 34.2014 46.4847C35.742 44.9459 36.9641 43.119 37.7979 41.1083C38.6316 39.0977 39.0608 36.9426 39.0608 34.7662V0H16.5902ZM33.5877 11.359H16.6394C15.2454 11.359 13.9084 11.9122 12.9227 12.897C11.9369 13.8818 11.3831 15.2175 11.3831 16.6102V22.7213H22.4213C23.8154 22.7213 25.1524 22.168 26.1381 21.1832C27.1238 20.1984 27.6776 18.8628 27.6776 17.4701C27.6759 17.033 27.7608 16.5999 27.9274 16.1957C28.094 15.7916 28.3391 15.4244 28.6485 15.1153C28.9578 14.8062 29.3254 14.5614 29.7299 14.395C30.1345 14.2285 30.568 14.1437 31.0055 14.1454H33.5877V34.7629C33.5877 37.7085 32.4164 40.5334 30.3316 42.6163C28.2467 44.6991 25.419 45.8692 22.4706 45.8692H5.46982V39.978H22.4213C23.8154 39.978 25.1524 39.4248 26.1381 38.44C27.1238 37.4552 27.6776 36.1195 27.6776 34.7268V28.6157H16.6394C15.2454 28.6157 13.9084 29.169 12.9227 30.1538C11.9369 31.1386 11.3831 32.4742 11.3831 33.8669C11.3831 34.7452 11.0339 35.5875 10.4123 36.2086C9.79064 36.8296 8.94752 37.1785 8.0684 37.1785H5.46982V16.5741C5.47069 13.6279 6.64258 10.8027 8.72785 8.7194C10.8131 6.63615 13.6411 5.4654 16.5902 5.46453H33.5877V11.359Z" fill="white"/>
</g>
<path d="M55.7549 39.0687C53.7785 39.0687 52.0812 38.7316 50.6629 38.0573C49.2678 37.383 48.0006 36.3716 46.8613 35.023L50.0002 31.8841C50.721 32.8374 51.5581 33.5815 52.5114 34.1162C53.4647 34.6278 54.6272 34.8835 55.999 34.8835C57.2314 34.8835 58.2079 34.6394 58.9287 34.1511C59.6727 33.6628 60.0447 32.9886 60.0447 32.1283C60.0447 31.3842 59.8355 30.7797 59.417 30.3147C58.9984 29.8496 58.4404 29.4544 57.7429 29.1289C57.0686 28.8033 56.3129 28.5127 55.4759 28.2569C54.6621 27.9779 53.8367 27.664 52.9996 27.3153C52.1858 26.9665 51.4302 26.5363 50.7326 26.0248C50.0584 25.49 49.512 24.8158 49.0934 24.002C48.6749 23.1649 48.4657 22.1186 48.4657 20.8631C48.4657 19.375 48.826 18.1078 49.5468 17.0615C50.2676 16.0152 51.2558 15.213 52.5114 14.655C53.7669 14.097 55.1852 13.8179 56.7663 13.8179C58.4404 13.8179 59.9517 14.1318 61.3003 14.7596C62.6489 15.3874 63.7533 16.2012 64.6136 17.201L61.4747 20.3399C60.7539 19.5494 60.0099 18.9681 59.2426 18.5961C58.4985 18.224 57.6499 18.038 56.6966 18.038C55.6038 18.038 54.7435 18.2473 54.1157 18.6658C53.4879 19.0843 53.174 19.6889 53.174 20.4794C53.174 21.1537 53.3833 21.7001 53.8018 22.1186C54.2203 22.5371 54.7667 22.8975 55.441 23.1998C56.1385 23.5021 56.8942 23.7927 57.708 24.0717C58.545 24.3507 59.3705 24.6646 60.1843 25.0134C61.0213 25.3622 61.777 25.8156 62.4512 26.3736C63.1488 26.9316 63.7068 27.6524 64.1253 28.5359C64.5439 29.3962 64.7531 30.4658 64.7531 31.7446C64.7531 34.0232 63.9509 35.8136 62.3466 37.1156C60.7423 38.4177 58.545 39.0687 55.7549 39.0687ZM79.3433 38.72V29.0591C79.3433 28.0593 79.0294 27.2455 78.4017 26.6177C77.7739 25.9899 76.9601 25.6761 75.9603 25.6761C75.3092 25.6761 74.728 25.8156 74.2164 26.0946C73.7049 26.3736 73.298 26.7689 72.9958 27.2804C72.7167 27.7919 72.5772 28.3848 72.5772 29.0591L70.7985 28.1523C70.7985 26.827 71.0775 25.6761 71.6356 24.6995C72.1936 23.6997 72.9609 22.9208 73.9374 22.3628C74.9372 21.8047 76.0765 21.5257 77.3553 21.5257C78.6342 21.5257 79.7618 21.8047 80.7384 22.3628C81.7382 22.9208 82.5171 23.6881 83.0751 24.6646C83.6332 25.6412 83.9122 26.7689 83.9122 28.0477V38.72H79.3433ZM68.0084 38.72V13.5041H72.5772V38.72H68.0084ZM94.6376 39.0687C93.103 39.0687 91.7196 38.6851 90.4873 37.9178C89.255 37.1505 88.29 36.1042 87.5925 34.7789C86.895 33.4536 86.5462 31.9655 86.5462 30.3147C86.5462 28.6406 86.895 27.1409 87.5925 25.8156C88.29 24.4902 89.255 23.4439 90.4873 22.6766C91.7196 21.9094 93.103 21.5257 94.6376 21.5257C95.8467 21.5257 96.9279 21.7699 97.8812 22.2581C98.8345 22.7464 99.5901 23.4323 100.148 24.3159C100.729 25.1762 101.043 26.1527 101.09 27.2455V33.3141C101.043 34.4301 100.729 35.4183 100.148 36.2786C99.5901 37.1389 98.8345 37.8248 97.8812 38.3363C96.9279 38.8246 95.8467 39.0687 94.6376 39.0687ZM95.4747 34.8486C96.7535 34.8486 97.7882 34.4301 98.5787 33.5931C99.3692 32.7328 99.7645 31.6284 99.7645 30.2798C99.7645 29.3962 99.5785 28.6173 99.2065 27.943C98.8577 27.2455 98.3578 26.7107 97.7068 26.3387C97.079 25.9434 96.335 25.7458 95.4747 25.7458C94.6376 25.7458 93.8936 25.9434 93.2425 26.3387C92.6148 26.7107 92.1149 27.2455 91.7428 27.943C91.3941 28.6173 91.2197 29.3962 91.2197 30.2798C91.2197 31.1866 91.3941 31.9888 91.7428 32.6863C92.1149 33.3606 92.6148 33.8953 93.2425 34.2906C93.8936 34.6626 94.6376 34.8486 95.4747 34.8486ZM99.5204 38.72V34.186L100.253 30.0705L99.5204 26.0248V21.8745H104.054V38.72H99.5204ZM108.096 38.72V21.8745H112.665V38.72H108.096ZM112.665 29.4079L110.886 28.2221C111.096 26.1527 111.7 24.5251 112.7 23.3393C113.7 22.1302 115.141 21.5257 117.025 21.5257C117.838 21.5257 118.571 21.6652 119.222 21.9442C119.873 22.2 120.466 22.6301 121.001 23.2347L118.141 26.5131C117.885 26.2341 117.571 26.0248 117.199 25.8853C116.85 25.7458 116.443 25.6761 115.978 25.6761C115.002 25.6761 114.2 25.9899 113.572 26.6177C112.967 27.2223 112.665 28.1523 112.665 29.4079ZM130.185 39.0687C128.418 39.0687 126.849 38.6967 125.477 37.9527C124.105 37.1854 123.012 36.1391 122.198 34.8138C121.408 33.4885 121.013 31.9771 121.013 30.2798C121.013 28.6057 121.396 27.1176 122.164 25.8156C122.954 24.4902 124.024 23.4439 125.372 22.6766C126.721 21.8861 128.221 21.4908 129.871 21.4908C131.499 21.4908 132.929 21.8629 134.161 22.6069C135.417 23.3277 136.393 24.3275 137.091 25.6063C137.812 26.8619 138.172 28.2918 138.172 29.8961C138.172 30.1984 138.149 30.5123 138.102 30.8378C138.079 31.1401 138.021 31.4888 137.928 31.8841L123.768 31.919V28.5011L135.8 28.4662L133.952 29.8961C133.905 28.8963 133.719 28.0593 133.394 27.385C133.092 26.7107 132.638 26.1992 132.034 25.8504C131.452 25.4784 130.732 25.2924 129.871 25.2924C128.965 25.2924 128.174 25.5017 127.5 25.9202C126.825 26.3155 126.302 26.8851 125.93 27.6292C125.581 28.3499 125.407 29.2102 125.407 30.21C125.407 31.2331 125.593 32.1283 125.965 32.8955C126.36 33.6396 126.918 34.2209 127.639 34.6394C128.36 35.0347 129.197 35.2323 130.15 35.2323C131.011 35.2323 131.79 35.0928 132.487 34.8138C133.185 34.5115 133.789 34.0697 134.301 33.4885L136.986 36.174C136.172 37.1273 135.173 37.8481 133.987 38.3363C132.824 38.8246 131.557 39.0687 130.185 39.0687ZM144.974 38.72V34.8486H151.356C152.495 34.8486 153.379 34.4999 154.007 33.8023C154.658 33.1048 154.983 32.2794 154.983 31.3261C154.983 30.6751 154.844 30.0822 154.565 29.5474C154.286 29.0126 153.867 28.5941 153.309 28.2918C152.774 27.9663 152.123 27.8035 151.356 27.8035H144.974V23.9671H150.833C151.809 23.9671 152.588 23.723 153.17 23.2347C153.774 22.7464 154.076 22.014 154.076 21.0374C154.076 20.0376 153.774 19.2936 153.17 18.8053C152.588 18.317 151.809 18.0729 150.833 18.0729H144.974V14.2016H151.391C153.018 14.2016 154.379 14.5039 155.471 15.1084C156.588 15.6897 157.425 16.4686 157.983 17.4451C158.541 18.3984 158.82 19.4447 158.82 20.584C158.82 21.9791 158.389 23.1882 157.529 24.2112C156.692 25.211 155.46 25.9551 153.832 26.4433L154.042 24.9088C155.855 25.4203 157.25 26.269 158.227 27.4548C159.227 28.6173 159.726 30.024 159.726 31.6749C159.726 32.9769 159.401 34.1627 158.75 35.2323C158.122 36.2786 157.192 37.1273 155.96 37.7783C154.751 38.4061 153.274 38.72 151.53 38.72H144.974ZM141.486 38.72V14.2016H146.194V38.72H141.486ZM163 38.72V21.8745H167.604V38.72H163ZM165.302 19.1541C164.558 19.1541 163.942 18.91 163.453 18.4217C162.965 17.9102 162.721 17.2824 162.721 16.5383C162.721 15.8175 162.965 15.2014 163.453 14.6899C163.942 14.1783 164.558 13.9226 165.302 13.9226C166.069 13.9226 166.685 14.1783 167.15 14.6899C167.639 15.2014 167.883 15.8175 167.883 16.5383C167.883 17.2824 167.639 17.9102 167.15 18.4217C166.685 18.91 166.069 19.1541 165.302 19.1541ZM174.127 38.72V14.8642H178.696V38.72H174.127ZM170.186 25.8853V21.8745H182.637V25.8853H170.186ZM192.854 39.0687C191.087 39.0687 189.518 38.6967 188.146 37.9527C186.774 37.1854 185.681 36.1391 184.868 34.8138C184.077 33.4885 183.682 31.9771 183.682 30.2798C183.682 28.6057 184.066 27.1176 184.833 25.8156C185.623 24.4902 186.693 23.4439 188.041 22.6766C189.39 21.8861 190.89 21.4908 192.541 21.4908C194.168 21.4908 195.598 21.8629 196.83 22.6069C198.086 23.3277 199.063 24.3275 199.76 25.6063C200.481 26.8619 200.841 28.2918 200.841 29.8961C200.841 30.1984 200.818 30.5123 200.771 30.8378C200.748 31.1401 200.69 31.4888 200.597 31.8841L186.437 31.919V28.5011L198.47 28.4662L196.621 29.8961C196.575 28.8963 196.389 28.0593 196.063 27.385C195.761 26.7107 195.307 26.1992 194.703 25.8504C194.122 25.4784 193.401 25.2924 192.541 25.2924C191.634 25.2924 190.843 25.5017 190.169 25.9202C189.495 26.3155 188.972 26.8851 188.599 27.6292C188.251 28.3499 188.076 29.2102 188.076 30.21C188.076 31.2331 188.262 32.1283 188.634 32.8955C189.03 33.6396 189.588 34.2209 190.308 34.6394C191.029 35.0347 191.866 35.2323 192.82 35.2323C193.68 35.2323 194.459 35.0928 195.156 34.8138C195.854 34.5115 196.458 34.0697 196.97 33.4885L199.655 36.174C198.842 37.1273 197.842 37.8481 196.656 38.3363C195.493 38.8246 194.226 39.0687 192.854 39.0687Z" fill="white"/>
<defs>
<clipPath id="clip0_49_608">
<rect width="39.0608" height="51.337" fill="white"/>
</clipPath>
</defs>
</svg>
