<svg width="202" height="281" viewBox="0 0 202 281" fill="none" xmlns="http://www.w3.org/2000/svg">
<path d="M0 30C0 13.4315 13.4315 0 30 0H202V251C202 267.569 188.569 281 172 281H0V30Z" fill="#EB1C2C"/>
<g clip-path="url(#clip0_34_29)">
<path d="M0.000915527 39.0002H201.615V241.658H0.000915527V39.0002Z" fill="#EB1C2C"/>
<path d="M17.5852 64.2594C17.2352 64.4494 16.2206 64.8483 14.5394 65.4519C13.2081 65.8988 12.3665 66.1996 12.0186 66.3583V60.8719C13.0956 60.4583 14.404 59.8234 15.9436 58.9651C17.4811 58.1046 18.5685 57.3256 19.204 56.626H24.9623V95.2691H17.5852V64.2594Z" fill="white"/>
<path fill-rule="evenodd" clip-rule="evenodd" d="M28.4456 168.578C28.4831 168.737 28.4893 168.906 28.456 169.075L23.4643 195.605C23.3414 196.257 22.7164 196.685 22.0685 196.562C21.4185 196.438 20.9914 195.812 21.1143 195.162L26.106 168.632C26.1289 168.516 26.1664 168.405 26.2185 168.305C25.706 167.904 25.3789 167.281 25.3789 166.584V150.96C25.3789 147.038 28.3727 143.821 32.1852 143.475C32.3185 143.458 32.4518 143.441 32.6143 143.441H44.9018C45.0518 143.441 45.1872 143.458 45.3143 143.475C49.1352 143.821 52.1268 147.038 52.1268 150.96V166.066C52.4206 165.667 52.8935 165.408 53.4247 165.408C54.0018 165.408 54.5018 165.713 54.7935 166.168L54.806 166.16C54.9393 166.27 56.9976 169.963 57.6893 170.646C58.4081 171.377 59.0601 171.295 59.0601 171.295H64.4289C64.4289 171.295 65.0747 171.377 65.7976 170.646C66.4789 169.963 68.5476 166.27 68.6768 166.16L68.6956 166.168C68.9789 165.713 69.4789 165.408 70.0622 165.408C70.5706 165.408 71.0226 165.642 71.3185 166.007C71.3414 165.519 71.4497 165.157 71.4497 165.157L75.8726 150.713C75.8726 150.713 77.4601 146.538 80.9601 146.538H92.2414C95.7455 146.538 97.3226 150.713 97.3226 150.713L101.75 165.157C101.75 165.157 102.541 167.803 100.298 168.465C98.0705 169.127 97.3914 166.542 97.3914 166.542L93.8247 154.487C93.8247 154.487 93.6289 153.56 92.9351 153.76C92.2414 153.961 92.506 154.953 92.506 154.953L98.7101 177.544H92.9351V193.723C92.9351 195.254 91.6976 196.499 90.1601 196.499C88.6206 196.499 87.3872 195.254 87.3872 193.723V177.544H85.8101V193.723C85.8101 195.254 84.5726 196.499 83.0393 196.499C81.5101 196.499 80.2622 195.254 80.2622 193.723V177.544H74.4872L80.6956 154.953C80.6956 154.953 80.9601 153.961 80.2622 153.76C79.5685 153.56 79.3747 154.487 79.3747 154.487L75.8039 166.542C75.8039 166.542 75.1289 169.127 72.8997 168.465C72.2018 168.261 71.7997 167.862 71.5726 167.413C71.4268 167.818 71.1726 168.357 71.1726 168.357L67.0435 175.84C67.0435 175.84 66.7726 176.397 66.7726 176.907V178.453L69.1372 187.178H66.7726V194.31C66.7726 195.526 65.7914 196.501 64.5851 196.501C63.3789 196.501 62.3997 195.526 62.3997 194.31V187.443C62.3997 187.443 62.4143 187.329 62.4018 187.178H61.081C61.0664 187.329 61.081 187.443 61.081 187.443V194.31C61.081 195.526 60.1081 196.501 58.9039 196.501C57.6956 196.501 56.7185 195.526 56.7185 194.31H56.7102V187.178H54.356L56.7102 178.501V176.907C56.7102 176.397 56.4372 175.84 56.4372 175.84L51.9685 167.734C51.9685 167.734 51.9414 167.651 51.9081 167.536C51.5539 168.263 50.8102 168.768 49.9477 168.768C48.7435 168.768 47.7664 167.787 47.7664 166.584V153.165C47.7664 152.662 47.6289 151.981 46.706 151.981C46.0768 151.981 45.9331 152.656 45.9164 153.084V193.304C45.9164 195.033 44.5185 196.443 42.7831 196.443C41.0518 196.443 39.6539 195.033 39.6539 193.304V170.126C39.6477 169.871 39.5497 169.207 38.7518 169.207C37.9539 169.207 37.8685 169.871 37.856 170.126V193.304C37.856 195.033 36.456 196.443 34.7247 196.443C32.9893 196.443 31.5956 195.033 31.5956 193.304V153.084C31.5685 152.656 31.4372 151.981 30.8039 151.981C29.8852 151.981 29.7393 152.662 29.7393 153.165V166.584C29.7393 167.471 29.2081 168.238 28.4456 168.578ZM157.243 135.664C157.243 132.548 159.764 130.025 162.87 130.025C165.97 130.025 168.483 132.548 168.483 135.664C168.483 138.778 165.97 141.301 162.87 141.301C159.764 141.301 157.243 138.778 157.243 135.664ZM169.433 143.475C173.248 143.821 176.237 147.038 176.237 150.96V166.584C176.237 167.787 175.262 168.768 174.06 168.768C172.852 168.768 171.879 167.787 171.879 166.584V153.165C171.879 152.662 171.733 151.981 170.816 151.981C170.181 151.981 170.05 152.656 170.025 153.084V193.304C170.025 195.033 168.629 196.443 166.895 196.443C165.162 196.443 163.758 195.033 163.758 193.304V170.126C163.75 169.871 163.664 169.207 162.87 169.207H162.866C162.068 169.207 161.971 169.871 161.962 170.126V193.304C161.962 195.033 160.566 196.443 158.833 196.443C157.098 196.443 155.702 195.033 155.702 193.304V153.084C155.681 152.656 155.543 151.981 154.914 151.981C153.991 151.981 153.852 152.662 153.852 153.165V166.584C153.852 167.787 152.875 168.768 151.671 168.768C150.464 168.768 149.493 167.787 149.493 166.584V150.96C149.493 147.038 152.485 143.821 156.306 143.475C156.431 143.458 156.568 143.441 156.718 143.441H169.006C169.166 143.441 169.298 143.458 169.433 143.475ZM123.81 138.623C123.81 141.572 121.433 143.961 118.491 143.961C115.548 143.961 113.164 141.572 113.164 138.623C113.164 135.676 115.548 133.281 118.491 133.281C121.433 133.281 123.81 135.676 123.81 138.623ZM107.762 150.713C107.762 150.713 109.348 146.538 112.848 146.538H124.131C127.633 146.538 129.214 150.713 129.214 150.713L133.639 165.157C133.639 165.157 134.433 167.803 132.187 168.465C129.96 169.127 129.283 166.542 129.283 166.542L125.714 154.487C125.714 154.487 125.521 153.56 124.825 153.76C124.131 153.961 124.391 154.953 124.391 154.953L130.598 177.544H124.825V193.723C124.825 195.254 123.583 196.499 122.046 196.499C120.51 196.499 119.275 195.254 119.275 193.723V177.544H117.698V193.723C117.698 195.254 116.46 196.499 114.929 196.499C113.396 196.499 112.152 195.254 112.152 193.723V177.544H106.377L112.587 154.953C112.587 154.953 112.848 153.961 112.152 153.76C111.458 153.56 111.264 154.487 111.264 154.487L107.696 166.542C107.696 166.542 107.018 169.127 104.789 168.465C102.548 167.803 103.337 165.157 103.337 165.157L107.762 150.713ZM91.9226 138.623C91.9226 141.572 89.5414 143.961 86.6018 143.961C83.6581 143.961 81.2768 141.572 81.2768 138.623C81.2768 135.676 83.6581 133.281 86.6018 133.281C89.5414 133.281 91.9226 135.676 91.9226 138.623ZM141.689 168.495C139.237 168.495 137.258 166.506 137.258 164.048C137.258 161.592 139.237 159.608 141.689 159.608C144.141 159.608 146.118 161.592 146.118 164.048C146.118 166.506 144.141 168.495 141.689 168.495ZM131.064 182.295L131.048 182.291C131.064 182.107 132.293 179.048 132.658 178.1C135.206 171.531 135.935 170.343 138.243 170.272C140.556 170.203 141.677 170.247 141.677 170.247C141.677 170.247 142.723 170.207 144.475 170.247C146.227 170.297 148.046 170.272 149.046 173.196C149.371 174.15 152.139 180.957 152.193 181.126L152.177 181.142C152.502 181.598 152.591 182.201 152.358 182.763C151.998 183.626 151.012 184.033 150.16 183.674C149.908 183.571 149.089 181.213 149.089 181.213L147.2 175.94C147.2 175.94 146.921 175.56 146.921 176.093V194.223C146.921 195.484 145.896 196.501 144.641 196.501C143.383 196.501 142.364 195.484 142.364 194.223V187.067C142.364 187.067 142.489 186.057 141.677 186.057C140.862 186.057 140.993 187.067 140.993 187.067V194.223C140.993 195.484 139.979 196.501 138.721 196.501C137.46 196.501 136.448 195.484 136.448 194.223H136.437V176.093C136.437 175.56 136.018 176.076 136.018 176.076L133.61 183.776C133.61 183.776 132.931 184.958 131.71 184.396C130.671 183.916 130.848 182.815 131.064 182.295ZM44.3747 135.664C44.3747 138.778 41.8518 141.301 38.7477 141.301C35.6456 141.301 33.1331 138.778 33.1331 135.664C33.1331 132.548 35.6456 130.025 38.7477 130.025C41.8518 130.025 44.3747 132.548 44.3747 135.664ZM61.7414 168.495C59.2914 168.495 57.3122 166.506 57.3122 164.048C57.3122 161.592 59.2914 159.608 61.7414 159.608C64.1935 159.608 66.1706 161.592 66.1706 164.048C66.1706 166.506 64.1935 168.495 61.7414 168.495Z" fill="white"/>
<path d="M41.1147 71.3734V56.6057H42.988L46.5707 65.0287V56.6057H48.7895V71.3734H47.0072L43.4063 62.5492V71.3734H41.1147Z" fill="white"/>
<path d="M54.9217 71.5739C53.8851 71.5739 53.0485 71.3734 52.4301 70.9905C51.8118 70.6077 51.3753 70.0425 51.1025 69.3132C50.8297 68.5839 50.7024 67.7271 50.7024 66.7243V61.2001C50.7024 60.1974 50.8297 59.3587 51.1025 58.6477C51.3753 57.9366 51.8118 57.3897 52.4301 57.0068C53.0485 56.624 53.8851 56.4417 54.9217 56.4417C55.9947 56.4417 56.8313 56.624 57.4315 57.0068C58.0498 57.3897 58.4863 57.9366 58.7591 58.6477C59.0319 59.3587 59.1774 60.1974 59.1774 61.2001V66.7425C59.1774 67.7271 59.0319 68.5839 58.7591 69.3132C58.4863 70.0242 58.0498 70.5894 57.4315 70.9905C56.8313 71.3734 55.9947 71.5739 54.9217 71.5739ZM54.9217 69.5867C55.3764 69.5867 55.7037 69.4955 55.9038 69.295C56.122 69.0944 56.2675 68.8392 56.3403 68.4928C56.413 68.1464 56.4494 67.7817 56.4494 67.3807V60.5802C56.4494 60.1609 56.413 59.7963 56.3403 59.4681C56.2675 59.1399 56.122 58.8847 55.9038 58.7024C55.7037 58.5018 55.3764 58.4107 54.9217 58.4107C54.5034 58.4107 54.176 58.5018 53.9578 58.7024C53.7396 58.8847 53.5941 59.1399 53.5213 59.4681C53.4486 59.7963 53.4122 60.1609 53.4122 60.5802V67.3807C53.4122 67.7817 53.4486 68.1464 53.5031 68.4928C53.5759 68.8392 53.7214 69.0944 53.9396 69.295C54.1579 69.4955 54.4852 69.5867 54.9217 69.5867Z" fill="white"/>
<path d="M41.1147 95.5074V80.7397H45.4432C46.3343 80.7397 47.0436 80.9038 47.5892 81.232C48.153 81.5602 48.5531 82.0342 48.8077 82.6723C49.0805 83.2922 49.2078 84.0397 49.2078 84.933C49.2078 85.8993 49.0441 86.665 48.7168 87.2667C48.3894 87.8501 47.9347 88.2694 47.3346 88.5429C46.7526 88.8164 46.0615 88.944 45.2613 88.944H43.8064V95.5074H41.1147ZM43.8064 87.0479H44.8248C45.3159 87.0479 45.6796 86.975 45.9524 86.8474C46.2252 86.7015 46.4253 86.4827 46.5162 86.1728C46.6253 85.8628 46.6799 85.4435 46.6799 84.9148C46.6799 84.3861 46.6435 83.9485 46.5526 83.6203C46.4798 83.2739 46.3161 83.0369 46.0433 82.8729C45.7887 82.7088 45.3886 82.6358 44.8248 82.6358H43.8064V87.0479Z" fill="white"/>
<path d="M54.5944 95.708C53.5578 95.708 52.7212 95.5074 52.1029 95.1246C51.4845 94.7417 51.048 94.1765 50.7752 93.4472C50.5024 92.718 50.3751 91.8611 50.3751 90.8583V85.3341C50.3751 84.3314 50.5024 83.4928 50.7752 82.7817C51.048 82.0707 51.4845 81.5237 52.1029 81.1409C52.7212 80.758 53.5578 80.5757 54.5944 80.5757C55.6674 80.5757 56.504 80.758 57.1042 81.1409C57.7225 81.5237 58.159 82.0707 58.4318 82.7817C58.7046 83.4928 58.8501 84.3314 58.8501 85.3341V90.8766C58.8501 91.8611 58.7046 92.718 58.4318 93.4472C58.159 94.1583 57.7225 94.7235 57.1042 95.1246C56.504 95.5074 55.6674 95.708 54.5944 95.708ZM54.5944 93.7207C55.0491 93.7207 55.3765 93.6296 55.5765 93.429C55.7948 93.2285 55.9402 92.9732 56.013 92.6268C56.0857 92.2804 56.1221 91.9158 56.1221 91.5147V84.7143C56.1221 84.2949 56.0857 83.9303 56.013 83.6021C55.9402 83.274 55.7948 83.0187 55.5765 82.8364C55.3765 82.6359 55.0491 82.5447 54.5944 82.5447C54.1761 82.5447 53.8488 82.6359 53.6305 82.8364C53.4123 83.0187 53.2668 83.274 53.1941 83.6021C53.1213 83.9303 53.0849 84.2949 53.0849 84.7143V91.5147C53.0849 91.9158 53.1213 92.2804 53.1759 92.6268C53.2486 92.9732 53.3941 93.2285 53.6123 93.429C53.8306 93.6296 54.1579 93.7207 54.5944 93.7207Z" fill="white"/>
<path d="M62.9276 95.5074L59.9631 80.7397H62.3456L64.2916 91.1865L66.1102 80.7397H68.5472L65.5828 95.5074H62.9276Z" fill="white"/>
<path d="M69.9512 95.5074V80.7397H76.1346V82.6358H72.6428V86.8838H75.389V88.7617H72.6428V93.6478H76.171V95.5074H69.9512Z" fill="white"/>
<path d="M77.6296 95.5074V80.7397H81.1579C82.1581 80.7397 82.9947 80.8674 83.6676 81.1044C84.3587 81.3414 84.8861 81.7425 85.2317 82.3077C85.5954 82.8729 85.7773 83.6568 85.7773 84.6413C85.7773 85.243 85.7227 85.7717 85.6136 86.2457C85.5045 86.7197 85.3226 87.1208 85.0498 87.4672C84.7952 87.7954 84.4315 88.0506 83.9768 88.233L86.0319 95.5074H83.3403L81.558 88.7434H80.3213V95.5074H77.6296ZM80.3213 87.0479H81.1579C81.6853 87.0479 82.0854 86.975 82.3945 86.8291C82.7037 86.665 82.9401 86.428 83.0675 86.0999C83.1948 85.7535 83.2675 85.3341 83.2675 84.8054C83.2675 84.0579 83.122 83.511 82.8492 83.1463C82.5764 82.7635 82.0672 82.5811 81.3033 82.5811H80.3213V87.0479Z" fill="white"/>
<path d="M88.9456 95.5074V82.727H86.5995V80.7397H93.9469V82.727H91.6372V95.5074H88.9456Z" fill="white"/>
<path d="M97.242 95.5074V89.8738L94.2594 80.7397H96.7692L98.5878 86.5921L100.297 80.7397H102.753L99.8063 89.8738V95.5074H97.242Z" fill="white"/>
</g>
<defs>
<clipPath id="clip0_34_29">
<rect width="202" height="203" fill="white" transform="translate(0 39)"/>
</clipPath>
</defs>
</svg>
