<svg width="202" height="281" viewBox="0 0 202 281" fill="none" xmlns="http://www.w3.org/2000/svg">
<path d="M0 30C0 13.4315 13.4315 0 30 0H202V251C202 267.569 188.569 281 172 281H0V30Z" fill="#D2A02A"/>
<g clip-path="url(#clip0_34_30)">
<path d="M0.000869751 39.0002H201.66V241.658H0.000869751V39.0002Z" fill="#D2A02A"/>
<path d="M16.2659 90.0686L25.5699 75.6122L26.1393 74.7538C27.3426 72.941 28.2279 71.4227 28.7973 70.1988C29.3688 68.975 29.6536 67.63 29.6536 66.1681C29.6536 64.9275 29.4146 63.9814 28.9407 63.3298C28.4648 62.6782 27.7853 62.3524 26.9 62.3524C25.5699 62.3524 24.6514 62.8599 24.1464 63.877C23.6393 64.8962 23.3857 66.2955 23.3857 68.0749V69.8417H16.2659V67.9328C16.2659 64.3073 17.1117 61.4377 18.8054 59.3221C20.4971 57.2064 23.1488 56.1497 26.7566 56.1497C30.0796 56.1497 32.6025 57.031 34.3295 58.7978C36.0523 60.5626 36.9168 63.0667 36.9168 66.3101C36.9168 67.7741 36.6945 69.1588 36.2518 70.462C35.8071 71.7652 35.2854 72.9264 34.6848 73.9435C34.0843 74.9627 33.1491 76.4079 31.8835 78.2854L24.4789 89.4483H35.9193V95.2689H16.2659V90.0686Z" fill="white"/>
<path fill-rule="evenodd" clip-rule="evenodd" d="M83.23 211.528C64.0297 205.583 49.5509 190.176 46.2944 171.325L46.2258 170.713C46.2258 169.964 46.8285 169.356 47.5808 169.356H154.086C154.836 169.356 155.437 169.964 155.437 170.713C155.437 170.778 155.43 170.837 155.418 170.901C155.414 170.937 155.408 170.974 155.401 171.014C152.301 189.687 138.209 205.008 119.397 211.207V214.446C119.397 214.45 119.401 214.454 119.401 214.454L119.397 214.465C119.391 215.2 118.809 215.795 118.079 215.81C118.069 215.81 118.058 215.814 118.05 215.814C118.04 215.814 118.029 215.81 118.021 215.81H84.6037C84.5933 215.81 84.5809 215.814 84.5705 215.814C84.5601 215.814 84.5538 215.81 84.5435 215.81C83.8348 215.795 83.2591 215.231 83.23 214.523C83.228 214.502 83.2197 214.479 83.2197 214.454C83.2197 214.434 83.228 214.411 83.23 214.392V211.528ZM119.366 123.675C120.334 122.315 122.4 121.878 123.994 122.697C125.584 123.52 126.099 125.283 125.135 126.651C125.012 126.834 116.834 138.826 124.908 147.696C130.617 153.964 131.203 160.06 129.779 164.922H122.751C124.185 161.628 124.621 156.754 119.596 151.228C108.636 139.19 118.927 124.303 119.366 123.675ZM101.564 164.922C102.996 161.633 103.432 156.756 98.407 151.228C87.4384 139.19 97.7358 124.301 98.1785 123.675C99.1427 122.315 101.213 121.881 102.8 122.697C104.394 123.522 104.903 125.283 103.943 126.644C103.814 126.841 95.6431 138.824 103.721 147.696C109.428 153.964 110.018 160.06 108.596 164.922H101.564ZM76.9851 123.675C77.9494 122.313 80.0172 121.874 81.607 122.697C83.2009 123.52 83.7101 125.283 82.7541 126.644C82.6253 126.834 74.4476 138.826 82.5255 147.696C88.2364 153.966 88.8245 160.062 87.403 164.922H80.3725C81.8044 161.633 82.2387 156.756 77.2116 151.228C66.2492 139.19 76.5404 124.303 76.9851 123.675Z" fill="white"/>
<path d="M52.6002 71.3734V69.6414L56.5551 58.4653H52.8179V56.6057H59.2582V57.9913L55.1582 69.5137H59.2764V71.3734H52.6002Z" fill="white"/>
<path d="M60.6736 71.3734V56.6057H66.8418V58.5018H63.3586V62.7498H66.098V64.6276H63.3586V69.5137H66.8781V71.3734H60.6736Z" fill="white"/>
<path d="M68.2926 71.3734V56.6057H71.8121C72.8099 56.6057 73.6444 56.7333 74.3157 56.9703C75.0051 57.2074 75.5312 57.6085 75.8759 58.1736C76.2387 58.7388 76.4201 59.5228 76.4201 60.5073C76.4201 61.1089 76.3657 61.6377 76.2568 62.1117C76.148 62.5857 75.9666 62.9868 75.6944 63.3332C75.4405 63.6614 75.0776 63.9166 74.6241 64.0989L76.6741 71.3734H73.9891L72.2112 64.6094H70.9776V71.3734H68.2926ZM70.9776 62.9139H71.8121C72.3382 62.9139 72.7373 62.8409 73.0457 62.6951C73.3542 62.531 73.59 62.294 73.717 61.9658C73.844 61.6194 73.9165 61.2001 73.9165 60.6714C73.9165 59.9239 73.7714 59.3769 73.4993 59.0123C73.2272 58.6294 72.7192 58.4471 71.9572 58.4471H70.9776V62.9139Z" fill="white"/>
<path d="M82.262 71.5739C81.2279 71.5739 80.3934 71.3734 79.7766 70.9905C79.1597 70.6077 78.7243 70.0425 78.4522 69.3132C78.1801 68.5839 78.0531 67.7271 78.0531 66.7243V61.2001C78.0531 60.1974 78.1801 59.3587 78.4522 58.6477C78.7243 57.9366 79.1597 57.3897 79.7766 57.0068C80.3934 56.624 81.2279 56.4417 82.262 56.4417C83.3324 56.4417 84.1669 56.624 84.7656 57.0068C85.3824 57.3897 85.8178 57.9366 86.0899 58.6477C86.362 59.3587 86.5072 60.1974 86.5072 61.2001V66.7425C86.5072 67.7271 86.362 68.5839 86.0899 69.3132C85.8178 70.0242 85.3824 70.5894 84.7656 70.9905C84.1669 71.3734 83.3324 71.5739 82.262 71.5739ZM82.262 69.5867C82.7155 69.5867 83.0421 69.4955 83.2416 69.295C83.4593 69.0944 83.6045 68.8392 83.677 68.4928C83.7496 68.1464 83.7859 67.7817 83.7859 67.3807V60.5802C83.7859 60.1609 83.7496 59.7963 83.677 59.4681C83.6045 59.1399 83.4593 58.8847 83.2416 58.7024C83.0421 58.5018 82.7155 58.4107 82.262 58.4107C81.8447 58.4107 81.5182 58.5018 81.3005 58.7024C81.0828 58.8847 80.9376 59.1399 80.8651 59.4681C80.7925 59.7963 80.7562 60.1609 80.7562 60.5802V67.3807C80.7562 67.7817 80.7925 68.1464 80.8469 68.4928C80.9195 68.8392 81.0646 69.0944 81.2823 69.295C81.5 69.4955 81.8266 69.5867 82.262 69.5867Z" fill="white"/>
<path d="M53.1444 95.5074V80.7397H55.8112V86.9203H58.8228V80.7397H61.4896V95.5074H58.8228V88.8346H55.8112V95.5074H53.1444Z" fill="white"/>
<path d="M67.6214 95.7079C66.5329 95.7079 65.6803 95.5074 65.0816 95.1063C64.4829 94.7052 64.0656 94.14 63.8298 93.3925C63.594 92.645 63.4851 91.7699 63.4851 90.7307V80.7397H66.0975V91.0406C66.0975 91.4964 66.1338 91.934 66.1882 92.3533C66.2427 92.7544 66.3878 93.0826 66.6055 93.3378C66.8413 93.5748 67.1679 93.7025 67.6214 93.7025C68.0931 93.7025 68.4378 93.5748 68.6374 93.3378C68.8551 93.0826 69.0002 92.7544 69.0546 92.3533C69.1272 91.934 69.1635 91.4964 69.1635 91.0406V80.7397H71.7578V90.7307C71.7578 91.7699 71.6489 92.645 71.4131 93.3925C71.1772 94.14 70.76 94.7052 70.1613 95.1063C69.5626 95.5074 68.7281 95.7079 67.6214 95.7079Z" fill="white"/>
<path d="M73.717 95.5074V80.7397H75.5856L79.1596 89.1628V80.7397H81.3729V95.5074H79.595L76.0029 86.6833V95.5074H73.717Z" fill="white"/>
<path d="M87.1422 95.708C86.1807 95.708 85.4006 95.5074 84.8382 95.0881C84.2758 94.6688 83.8585 94.0854 83.6045 93.3379C83.3687 92.5721 83.2417 91.6788 83.2417 90.6396V85.6806C83.2417 84.6231 83.3687 83.7115 83.6045 82.9458C83.8404 82.1801 84.2758 81.5967 84.8745 81.1956C85.4913 80.7762 86.3439 80.5757 87.4143 80.5757C88.4121 80.5757 89.2103 80.7398 89.809 81.0862C90.4077 81.4326 90.825 81.9248 91.0789 82.5629C91.3511 83.201 91.4781 83.9668 91.4781 84.8784V85.6441H88.9201V84.8054C88.9201 84.3314 88.8838 83.9303 88.8112 83.5839C88.7568 83.2375 88.6117 82.9823 88.4121 82.8182C88.2125 82.6359 87.9041 82.5447 87.4506 82.5447C86.9789 82.5447 86.6342 82.6541 86.4165 82.8911C86.2169 83.1281 86.0718 83.4198 86.0174 83.8027C85.963 84.1856 85.9448 84.5867 85.9448 85.0424V91.223C85.9448 91.7335 85.9811 92.171 86.0718 92.5539C86.1625 92.9368 86.3077 93.2285 86.5435 93.429C86.7793 93.6296 87.1059 93.7207 87.5232 93.7207C87.9586 93.7207 88.2851 93.6113 88.521 93.3925C88.7568 93.1738 88.9019 92.8638 88.9926 92.481C89.0833 92.0981 89.1378 91.6241 89.1378 91.0954V89.7098H87.5594V88.0142H91.5506V95.5074H89.8272L89.6276 94.0489C89.428 94.5411 89.1378 94.9422 88.7387 95.2522C88.3577 95.5621 87.8134 95.708 87.1422 95.708Z" fill="white"/>
<path d="M93.4551 95.5074V80.7397H99.6233V82.6358H96.1401V86.8838H98.8795V88.7617H96.1401V93.6478H99.6596V95.5074H93.4551Z" fill="white"/>
<path d="M101.075 95.5074V80.7397H104.595C105.592 80.7397 106.427 80.8674 107.098 81.1044C107.788 81.3414 108.314 81.7425 108.658 82.3077C109.021 82.8729 109.203 83.6568 109.203 84.6413C109.203 85.243 109.148 85.7717 109.039 86.2457C108.93 86.7197 108.749 87.1208 108.477 87.4672C108.223 87.7954 107.86 88.0506 107.407 88.233L109.457 95.5074H106.772L104.994 88.7434H103.76V95.5074H101.075ZM103.76 87.0479H104.595C105.121 87.0479 105.52 86.975 105.828 86.8291C106.137 86.665 106.372 86.428 106.499 86.0999C106.626 85.7535 106.699 85.3341 106.699 84.8054C106.699 84.0579 106.554 83.511 106.282 83.1463C106.01 82.7635 105.502 82.5811 104.74 82.5811H103.76V87.0479Z" fill="white"/>
</g>
<defs>
<clipPath id="clip0_34_30">
<rect width="202" height="203" fill="white" transform="translate(0 39)"/>
</clipPath>
</defs>
</svg>
