<svg width="202" height="281" viewBox="0 0 202 281" fill="none" xmlns="http://www.w3.org/2000/svg">
<path d="M0 30C0 13.4315 13.4315 0 30 0H202V251C202 267.569 188.569 281 172 281H0V30Z" fill="#8F1737"/>
<g clip-path="url(#clip0_34_96)">
<path d="M0.000869751 39.5H201.66V241.159H0.000869751V39.5Z" fill="#8F1737"/>
<path d="M15.7914 84.385C15.7914 82.232 16.1717 80.3658 16.9302 78.7822C17.6908 77.2007 18.8131 76.0307 20.301 75.2701C19.129 74.416 18.1813 73.2688 17.4519 71.8286C16.7245 70.3884 16.3608 68.6407 16.3608 66.5833C16.3608 63.4182 17.1983 60.9576 18.8775 59.2016C20.5546 57.4434 22.9591 56.5664 26.093 56.5664C29.2248 56.5664 31.6147 57.4372 33.2606 59.1766C34.9066 60.9181 35.7295 63.3392 35.7295 66.4399C35.7295 68.5929 35.3804 70.3968 34.6842 71.8515C33.988 73.3083 33.0549 74.4471 31.8849 75.2701C33.3708 76.0307 34.4951 77.2319 35.2536 78.8778C36.0142 80.5238 36.3945 82.471 36.3945 84.7176C36.3945 88.2941 35.5716 91.0768 33.9256 93.0719C32.2797 95.0669 29.6695 96.0624 26.093 96.0624C19.2245 96.0624 15.7914 92.1699 15.7914 84.385ZM28.5847 88.9176C29.0128 87.7954 29.2248 86.378 29.2248 84.6698C29.2248 82.7703 29.0128 81.2678 28.5847 80.1601C28.1566 79.0524 27.3274 78.4975 26.093 78.4975C24.8585 78.4975 24.0272 79.0607 23.6012 80.1829C23.1731 81.3072 22.9591 82.8035 22.9591 84.6698C22.9591 86.378 23.1731 87.7954 23.6012 88.9176C24.0272 90.0419 24.8585 90.603 26.093 90.603C27.3274 90.603 28.1566 90.0419 28.5847 88.9176ZM28.7988 66.5833C28.7988 65.1909 28.5764 64.0895 28.1337 63.2831C27.6911 62.4768 27.0094 62.0736 26.093 62.0736C25.1744 62.0736 24.4782 62.4768 24.0044 63.2831C23.5285 64.0895 23.2916 65.1909 23.2916 66.5833C23.2916 70.5401 24.2247 72.5165 26.093 72.5165C27.8968 72.5165 28.7988 70.5401 28.7988 66.5833Z" fill="white"/>
<path fill-rule="evenodd" clip-rule="evenodd" d="M140.451 138.703C141.796 137.366 142.301 138.549 142.301 139.197V216.132C142.301 216.776 141.777 217.304 141.131 217.304H119.861C119.212 217.304 118.684 216.776 118.684 216.132V161.232C118.684 159.634 119.083 159.065 119.861 158.292L140.451 138.703ZM81.1314 164.223C82.4698 162.88 82.981 164.065 82.981 164.713V216.132C82.981 216.772 82.4573 217.3 81.8089 217.3H60.5387C59.8903 217.3 59.3645 216.772 59.3645 216.132V186.748C59.3645 185.15 59.7635 184.583 60.5387 183.808L81.1314 164.223ZM149.811 114.949L149.803 115.121L146.339 131.217L146.337 131.269C146.33 131.41 146.276 131.545 146.164 131.656C145.936 131.89 145.555 131.89 145.325 131.656L141.542 127.877L100.995 168.425C100.808 168.614 100.508 168.614 100.323 168.425L95.845 163.951C95.8242 163.934 95.818 163.913 95.8055 163.895L83.831 151.92L57.7103 178.035C57.5253 178.222 57.226 178.222 57.0431 178.035L52.5605 173.554C52.3776 173.371 52.3776 173.068 52.5605 172.883L79.0117 146.436C79.0117 146.436 79.0117 146.429 79.0158 146.429L83.4922 141.951C83.6814 141.764 83.9765 141.764 84.1635 141.951L100.664 158.454L136.393 122.726L132.791 119.126L132.612 118.947C132.382 118.713 132.382 118.334 132.612 118.1C132.702 118.016 132.808 117.96 132.92 117.94L133.207 117.908L148.974 114.353L149.142 114.342L149.257 114.336C149.39 114.348 149.529 114.396 149.637 114.502C149.764 114.625 149.82 114.793 149.811 114.949ZM110.908 167.66C112.369 166.197 112.88 167.384 112.88 168.032V216.13C112.88 216.772 112.354 217.3 111.71 217.3H90.4334C89.7871 217.3 89.2675 216.772 89.2675 216.13V168.816C89.2675 168.169 89.625 166.833 91.2771 168.481L100.303 177.681C100.479 177.856 100.756 177.862 100.945 177.706L110.908 167.66Z" fill="white"/>
<path d="M50.8267 71.7103V57.0154H54.2917C55.4891 57.0154 56.4143 57.1787 57.0856 57.5052C57.7568 57.8318 58.2466 58.3397 58.5188 59.011C58.809 59.6822 58.9542 60.553 58.9542 61.5871V66.9571C58.9542 68.0275 58.809 68.9164 58.5188 69.624C58.2466 70.3315 57.775 70.8576 57.1037 71.2023C56.4506 71.547 55.5435 71.7103 54.4006 71.7103H50.8267ZM53.5116 69.8417H54.328C54.9448 69.8417 55.3802 69.7328 55.6524 69.5151C55.9245 69.2974 56.0878 68.989 56.1422 68.5717C56.1966 68.1545 56.2329 67.6284 56.2329 67.0297V61.4057C56.2329 60.807 56.1966 60.3353 56.1059 59.9725C56.0152 59.6097 55.8519 59.3375 55.5798 59.1743C55.3077 59.011 54.8904 58.9203 54.2917 58.9203H53.5116V69.8417Z" fill="white"/>
<path d="M60.4238 71.7103V57.0154H66.592V58.9021H63.1088V63.1292H65.8482V64.9978H63.1088V69.8598H66.6283V71.7103H60.4238Z" fill="white"/>
<path d="M71.6353 71.9098C70.5649 71.9098 69.7122 71.6921 69.0954 71.2748C68.4967 70.8576 68.0613 70.277 67.8255 69.5514C67.5896 68.8075 67.4626 67.973 67.4626 67.0115V61.7685C67.4626 60.7707 67.5896 59.8999 67.8255 59.1561C68.0613 58.4123 68.4967 57.8499 69.0954 57.4507C69.7122 57.0516 70.5649 56.8521 71.6353 56.8521C72.6512 56.8521 73.4494 57.0335 74.0118 57.3782C74.5924 57.7229 75.0096 58.2127 75.2455 58.8477C75.4813 59.4826 75.6083 60.2264 75.6083 61.0791V62.3128H73.0322V61.0428C73.0322 60.6256 73.014 60.2627 72.9596 59.918C72.9233 59.5733 72.8145 59.3193 72.6149 59.1198C72.4335 58.9202 72.1069 58.8114 71.6534 58.8114C71.1998 58.8114 70.8552 58.9202 70.6375 59.1379C70.4379 59.3375 70.2928 59.6278 70.2383 59.9906C70.1839 60.3353 70.1476 60.7344 70.1476 61.188V67.5739C70.1476 68.1 70.1839 68.5536 70.2746 68.8982C70.3653 69.2429 70.5105 69.4969 70.7282 69.6783C70.964 69.8416 71.2724 69.9323 71.6534 69.9323C72.1069 69.9323 72.4153 69.8235 72.5968 69.6239C72.7963 69.4062 72.9052 69.1159 72.9596 68.7713C73.014 68.4266 73.0322 68.0274 73.0322 67.592V66.2677H75.6083V67.4469C75.6083 68.3177 75.4994 69.0978 75.2636 69.7691C75.0278 70.4403 74.6286 70.9664 74.0481 71.3474C73.4857 71.7284 72.6693 71.9098 71.6353 71.9098Z" fill="white"/>
<path d="M76.9692 71.7103V57.0154H83.1374V58.9021H79.6542V63.1292H82.3936V64.9978H79.6542V69.8598H83.1737V71.7103H76.9692Z" fill="white"/>
<path d="M84.2256 71.7103V57.0154H86.0942L89.6681 65.3969V57.0154H91.8814V71.7103H90.1035L86.5114 62.9296V71.7103H84.2256Z" fill="white"/>
<path d="M95.0742 71.7103V58.9928H92.7339V57.0154H100.063V58.9928H97.7592V71.7103H95.0742Z" fill="white"/>
<path d="M106.34 71.7103L104.254 57.0154H106.504L107.719 66.5399L109.243 57.0517H111.075L112.636 66.5399L113.833 57.0154H116.046L113.996 71.7103H111.819L110.187 61.8593L108.572 71.7103H106.34Z" fill="white"/>
<path d="M121.181 71.9098C120.146 71.9098 119.312 71.7102 118.695 71.3293C118.078 70.9483 117.643 70.3859 117.371 69.6602C117.099 68.9345 116.972 68.0819 116.972 67.0841V61.5871C116.972 60.5893 117.099 59.7547 117.371 59.0472C117.643 58.3397 118.078 57.7954 118.695 57.4144C119.312 57.0335 120.146 56.8521 121.181 56.8521C122.251 56.8521 123.085 57.0335 123.684 57.4144C124.301 57.7954 124.736 58.3397 125.008 59.0472C125.281 59.7547 125.426 60.5893 125.426 61.5871V67.1022C125.426 68.0819 125.281 68.9345 125.008 69.6602C124.736 70.3677 124.301 70.9301 123.684 71.3293C123.085 71.7102 122.251 71.9098 121.181 71.9098ZM121.181 69.9323C121.634 69.9323 121.961 69.8416 122.16 69.6421C122.378 69.4425 122.523 69.1885 122.596 68.8438C122.668 68.4991 122.704 68.1363 122.704 67.7372V60.9703C122.704 60.553 122.668 60.1902 122.596 59.8636C122.523 59.537 122.378 59.2831 122.16 59.1016C121.961 58.9021 121.634 58.8114 121.181 58.8114C120.763 58.8114 120.437 58.9021 120.219 59.1016C120.001 59.2831 119.856 59.537 119.784 59.8636C119.711 60.1902 119.675 60.553 119.675 60.9703V67.7372C119.675 68.1363 119.711 68.4991 119.766 68.8438C119.838 69.1885 119.983 69.4425 120.201 69.6421C120.419 69.8416 120.745 69.9323 121.181 69.9323Z" fill="white"/>
<path d="M126.896 71.7103V57.0154H130.415C131.413 57.0154 132.247 57.1424 132.919 57.3782C133.608 57.6141 134.134 58.0132 134.479 58.5756C134.842 59.138 135.023 59.9181 135.023 60.8977C135.023 61.4964 134.969 62.0225 134.86 62.4942C134.751 62.9659 134.569 63.365 134.297 63.7097C134.043 64.0363 133.681 64.2903 133.227 64.4717L135.277 71.7103H132.592L130.814 64.9797H129.58V71.7103H126.896ZM129.58 63.2925H130.415C130.941 63.2925 131.34 63.2199 131.649 63.0748C131.957 62.9115 132.193 62.6756 132.32 62.3491C132.447 62.0044 132.519 61.5871 132.519 61.061C132.519 60.3172 132.374 59.7729 132.102 59.4101C131.83 59.0291 131.322 58.8477 130.56 58.8477H129.58V63.2925Z" fill="white"/>
<path d="M136.565 71.7103V57.0154H139.25V63.4739L142.152 57.0154H144.71L141.898 63.5827L145.001 71.7103H142.334L139.866 65.0159L139.25 66.1407V71.7103H136.565Z" fill="white"/>
<path d="M148.865 71.7103L151.804 57.0154H154.67L157.609 71.7103H155.124L154.543 68.3178H151.985L151.386 71.7103H148.865ZM152.257 66.6124H154.253L153.255 60.4442L152.257 66.6124Z" fill="white"/>
<path d="M158.57 71.7103V57.0154H160.439L164.013 65.3969V57.0154H166.226V71.7103H164.448L160.856 62.9296V71.7103H158.57Z" fill="white"/>
<path d="M167.95 71.7103V57.0154H171.415C172.612 57.0154 173.538 57.1787 174.209 57.5052C174.88 57.8318 175.37 58.3397 175.642 59.011C175.932 59.6822 176.077 60.553 176.077 61.5871V66.9571C176.077 68.0275 175.932 68.9164 175.642 69.624C175.37 70.3315 174.898 70.8576 174.227 71.2023C173.574 71.547 172.667 71.7103 171.524 71.7103H167.95ZM170.635 69.8417H171.451C172.068 69.8417 172.504 69.7328 172.776 69.5151C173.048 69.2974 173.211 68.989 173.265 68.5717C173.32 68.1545 173.356 67.6284 173.356 67.0297V61.4057C173.356 60.807 173.32 60.3353 173.229 59.9725C173.138 59.6097 172.975 59.3375 172.703 59.1743C172.431 59.011 172.014 58.9203 171.415 58.9203H170.635V69.8417Z" fill="white"/>
<path d="M50.8267 95.7254V81.0305H56.9949V82.9173H53.5116V87.1443H56.251V89.0129H53.5116V93.875H57.0311V95.7254H50.8267Z" fill="white"/>
<path d="M62.1653 95.9249C61.0949 95.9249 60.2423 95.7072 59.6254 95.29C59.0268 94.8727 58.5914 94.2922 58.3555 93.5665C58.1197 92.8227 57.9927 91.9881 57.9927 91.0266V85.7836C57.9927 84.7858 58.1197 83.915 58.3555 83.1712C58.5914 82.4274 59.0268 81.865 59.6254 81.4659C60.2423 81.0667 61.0949 80.8672 62.1653 80.8672C63.1812 80.8672 63.9795 81.0486 64.5419 81.3933C65.1224 81.738 65.5396 82.2278 65.7755 82.8628C66.0113 83.4978 66.1383 84.2416 66.1383 85.0942V86.3279H63.5622V85.058C63.5622 84.6407 63.5441 84.2779 63.4896 83.9332C63.4533 83.5885 63.3445 83.3345 63.1449 83.1349C62.9635 82.9354 62.637 82.8265 62.1834 82.8265C61.7299 82.8265 61.3852 82.9354 61.1675 83.1531C60.9679 83.3526 60.8228 83.6429 60.7684 84.0057C60.7139 84.3504 60.6777 84.7495 60.6777 85.2031V91.589C60.6777 92.1151 60.7139 92.5687 60.8046 92.9134C60.8954 93.2581 61.0405 93.5121 61.2582 93.6935C61.494 93.8568 61.8024 93.9475 62.1834 93.9475C62.637 93.9475 62.9454 93.8386 63.1268 93.6391C63.3264 93.4214 63.4352 93.1311 63.4896 92.7864C63.5441 92.4417 63.5622 92.0426 63.5622 91.6072V90.2828H66.1383V91.462C66.1383 92.3328 66.0295 93.1129 65.7936 93.7842C65.5578 94.4554 65.1587 94.9816 64.5781 95.3625C64.0157 95.7435 63.1994 95.9249 62.1653 95.9249Z" fill="white"/>
<path d="M71.6173 95.9249C70.5833 95.9249 69.7487 95.7254 69.1319 95.3444C68.5151 94.9634 68.0797 94.401 67.8076 93.6753C67.5354 92.9497 67.4084 92.097 67.4084 91.0992V85.6022C67.4084 84.6044 67.5354 83.7699 67.8076 83.0624C68.0797 82.3548 68.5151 81.8106 69.1319 81.4296C69.7487 81.0486 70.5833 80.8672 71.6173 80.8672C72.6877 80.8672 73.5222 81.0486 74.1209 81.4296C74.7377 81.8106 75.1731 82.3548 75.4452 83.0624C75.7174 83.7699 75.8625 84.6044 75.8625 85.6022V91.1173C75.8625 92.097 75.7174 92.9497 75.4452 93.6753C75.1731 94.3829 74.7377 94.9453 74.1209 95.3444C73.5222 95.7254 72.6877 95.9249 71.6173 95.9249ZM71.6173 93.9475C72.0709 93.9475 72.3974 93.8568 72.597 93.6572C72.8147 93.4576 72.9598 93.2037 73.0324 92.859C73.105 92.5143 73.1412 92.1514 73.1412 91.7523V84.9854C73.1412 84.5681 73.105 84.2053 73.0324 83.8787C72.9598 83.5522 72.8147 83.2982 72.597 83.1168C72.3974 82.9172 72.0709 82.8265 71.6173 82.8265C71.2001 82.8265 70.8735 82.9172 70.6558 83.1168C70.4381 83.2982 70.293 83.5522 70.2204 83.8787C70.1479 84.2053 70.1116 84.5681 70.1116 84.9854V91.7523C70.1116 92.1514 70.1479 92.5143 70.2023 92.859C70.2748 93.2037 70.42 93.4576 70.6377 93.6572C70.8554 93.8568 71.1819 93.9475 71.6173 93.9475Z" fill="white"/>
<path d="M77.4585 95.7254V81.0305H79.3271L82.901 89.4121V81.0305H85.1143V95.7254H83.3364L79.7444 86.9448V95.7254H77.4585Z" fill="white"/>
<path d="M90.9562 95.9249C89.9221 95.9249 89.0876 95.7254 88.4708 95.3444C87.854 94.9634 87.4186 94.401 87.1464 93.6753C86.8743 92.9497 86.7473 92.097 86.7473 91.0992V85.6022C86.7473 84.6044 86.8743 83.7699 87.1464 83.0624C87.4186 82.3548 87.854 81.8106 88.4708 81.4296C89.0876 81.0486 89.9221 80.8672 90.9562 80.8672C92.0266 80.8672 92.8611 81.0486 93.4598 81.4296C94.0766 81.8106 94.512 82.3548 94.7841 83.0624C95.0562 83.7699 95.2014 84.6044 95.2014 85.6022V91.1173C95.2014 92.097 95.0562 92.9497 94.7841 93.6753C94.512 94.3829 94.0766 94.9453 93.4598 95.3444C92.8611 95.7254 92.0266 95.9249 90.9562 95.9249ZM90.9562 93.9475C91.4097 93.9475 91.7363 93.8568 91.9359 93.6572C92.1536 93.4576 92.2987 93.2037 92.3713 92.859C92.4438 92.5143 92.4801 92.1514 92.4801 91.7523V84.9854C92.4801 84.5681 92.4438 84.2053 92.3713 83.8787C92.2987 83.5522 92.1536 83.2982 91.9359 83.1168C91.7363 82.9172 91.4097 82.8265 90.9562 82.8265C90.5389 82.8265 90.2124 82.9172 89.9947 83.1168C89.777 83.2982 89.6319 83.5522 89.5593 83.8787C89.4867 84.2053 89.4504 84.5681 89.4504 84.9854V91.7523C89.4504 92.1514 89.4867 92.5143 89.5411 92.859C89.6137 93.2037 89.7588 93.4576 89.9765 93.6572C90.1942 93.8568 90.5208 93.9475 90.9562 93.9475Z" fill="white"/>
<path d="M96.7615 95.7254L97.0155 81.0305H99.7911L101.877 91.2081L104.054 81.0305H106.739L107.012 95.7254H105.016L104.798 85.5116L102.712 95.7254H101.097L98.9748 85.4753L98.7752 95.7254H96.7615Z" fill="white"/>
<path d="M111.529 81.0305H108.88V95.7254H111.529V81.0305Z" fill="white"/>
<path d="M117.371 95.9249C116.3 95.9249 115.448 95.7072 114.831 95.29C114.232 94.8727 113.797 94.2922 113.561 93.5665C113.325 92.8227 113.198 91.9881 113.198 91.0266V85.7836C113.198 84.7858 113.325 83.915 113.561 83.1712C113.797 82.4274 114.232 81.865 114.831 81.4659C115.448 81.0667 116.3 80.8672 117.371 80.8672C118.387 80.8672 119.185 81.0486 119.747 81.3933C120.328 81.738 120.745 82.2278 120.981 82.8628C121.217 83.4978 121.344 84.2416 121.344 85.0942V86.3279H118.768V85.058C118.768 84.6407 118.75 84.2779 118.695 83.9332C118.659 83.5885 118.55 83.3345 118.351 83.1349C118.169 82.9354 117.843 82.8265 117.389 82.8265C116.935 82.8265 116.591 82.9354 116.373 83.1531C116.173 83.3526 116.028 83.6429 115.974 84.0057C115.92 84.3504 115.883 84.7495 115.883 85.2031V91.589C115.883 92.1151 115.92 92.5687 116.01 92.9134C116.101 93.2581 116.246 93.5121 116.464 93.6935C116.7 93.8568 117.008 93.9475 117.389 93.9475C117.843 93.9475 118.151 93.8386 118.332 93.6391C118.532 93.4214 118.641 93.1311 118.695 92.7864C118.75 92.4417 118.768 92.0426 118.768 91.6072V90.2828H121.344V91.462C121.344 92.3328 121.235 93.1129 120.999 93.7842C120.763 94.4554 120.364 94.9816 119.784 95.3625C119.221 95.7435 118.405 95.9249 117.371 95.9249Z" fill="white"/>
<path d="M130.541 95.9249C129.58 95.9249 128.8 95.7254 128.237 95.3081C127.675 94.8908 127.258 94.3103 127.004 93.5665C126.768 92.8045 126.641 91.9156 126.641 90.8815V85.9469C126.641 84.8947 126.768 83.9876 127.004 83.2256C127.24 82.4637 127.675 81.8831 128.274 81.484C128.89 81.0667 129.743 80.8672 130.813 80.8672C131.811 80.8672 132.61 81.0305 133.208 81.3752C133.807 81.7199 134.224 82.2097 134.478 82.8447C134.75 83.4796 134.877 84.2416 134.877 85.1487V85.9106H132.319V85.0761C132.319 84.6044 132.283 84.2053 132.21 83.8606C132.156 83.5159 132.011 83.2619 131.811 83.0986C131.612 82.9172 131.303 82.8265 130.85 82.8265C130.378 82.8265 130.033 82.9354 129.816 83.1712C129.616 83.407 129.471 83.6973 129.417 84.0783C129.362 84.4593 129.344 84.8584 129.344 85.3119V91.462C129.344 91.97 129.38 92.4054 129.471 92.7864C129.562 93.1674 129.707 93.4576 129.943 93.6572C130.179 93.8568 130.505 93.9475 130.922 93.9475C131.358 93.9475 131.684 93.8386 131.92 93.6209C132.156 93.4032 132.301 93.0948 132.392 92.7138C132.483 92.3328 132.537 91.8612 132.537 91.335V89.9563H130.959V88.2691H134.95V95.7254H133.226L133.027 94.274C132.827 94.7639 132.537 95.163 132.138 95.4714C131.757 95.7798 131.213 95.9249 130.541 95.9249Z" fill="white"/>
<path d="M136.619 95.7254V81.0305H140.138C141.136 81.0305 141.971 81.1575 142.642 81.3934C143.331 81.6292 143.857 82.0283 144.202 82.5907C144.565 83.1531 144.746 83.9332 144.746 84.9129C144.746 85.5116 144.692 86.0377 144.583 86.5094C144.474 86.981 144.293 87.3802 144.021 87.7249C143.767 88.0514 143.404 88.3054 142.95 88.4868L145 95.7254H142.315L140.538 88.9948H139.304V95.7254H136.619ZM139.304 87.3076H140.138C140.665 87.3076 141.064 87.235 141.372 87.0899C141.68 86.9266 141.916 86.6908 142.043 86.3642C142.17 86.0195 142.243 85.6023 142.243 85.0762C142.243 84.3323 142.098 83.7881 141.826 83.4252C141.553 83.0443 141.045 82.8628 140.284 82.8628H139.304V87.3076Z" fill="white"/>
<path d="M150.352 95.9249C149.318 95.9249 148.484 95.7254 147.867 95.3444C147.25 94.9634 146.815 94.401 146.542 93.6753C146.27 92.9497 146.143 92.097 146.143 91.0992V85.6022C146.143 84.6044 146.27 83.7699 146.542 83.0624C146.815 82.3548 147.25 81.8106 147.867 81.4296C148.484 81.0486 149.318 80.8672 150.352 80.8672C151.423 80.8672 152.257 81.0486 152.856 81.4296C153.473 81.8106 153.908 82.3548 154.18 83.0624C154.452 83.7699 154.597 84.6044 154.597 85.6022V91.1173C154.597 92.097 154.452 92.9497 154.18 93.6753C153.908 94.3829 153.473 94.9453 152.856 95.3444C152.257 95.7254 151.423 95.9249 150.352 95.9249ZM150.352 93.9475C150.806 93.9475 151.132 93.8568 151.332 93.6572C151.55 93.4576 151.695 93.2037 151.767 92.859C151.84 92.5143 151.876 92.1514 151.876 91.7523V84.9854C151.876 84.5681 151.84 84.2053 151.767 83.8787C151.695 83.5522 151.55 83.2982 151.332 83.1168C151.132 82.9172 150.806 82.8265 150.352 82.8265C149.935 82.8265 149.608 82.9172 149.391 83.1168C149.173 83.2982 149.028 83.5522 148.955 83.8787C148.883 84.2053 148.846 84.5681 148.846 84.9854V91.7523C148.846 92.1514 148.883 92.5143 148.937 92.859C149.01 93.2037 149.155 93.4576 149.373 93.6572C149.59 93.8568 149.917 93.9475 150.352 93.9475Z" fill="white"/>
<path d="M157.736 95.7254L155.65 81.0305H157.9L159.115 90.555L160.639 81.0668H162.471L164.032 90.555L165.229 81.0305H167.442L165.392 95.7254H163.215L161.583 85.8744L159.968 95.7254H157.736Z" fill="white"/>
<path d="M170.199 95.7254V83.008H167.859V81.0305H175.188V83.008H172.884V95.7254H170.199Z" fill="white"/>
<path d="M176.186 95.7254V81.0305H178.853V87.1806H181.864V81.0305H184.531V95.7254H181.864V89.0855H178.853V95.7254H176.186Z" fill="white"/>
</g>
<defs>
<clipPath id="clip0_34_96">
<rect width="202" height="202" fill="white" transform="translate(0 39.5)"/>
</clipPath>
</defs>
</svg>
