<svg width="202" height="281" viewBox="0 0 202 281" fill="none" xmlns="http://www.w3.org/2000/svg">
<g clip-path="url(#clip0_34_198)">
<path d="M0 30C0 13.4315 13.4315 0 30 0H202V251C202 267.569 188.569 281 172 281H0V30Z" fill="#CF8D2A"/>
<rect x="-0.5" y="39" width="203" height="203" fill="#CF8D2A"/>
<g clip-path="url(#clip1_34_198)">
<path d="M-0.525299 34H202.132V235.659H-0.525299V34Z" fill="#CF8D2A"/>
<path d="M16.8722 59.1356C16.5213 59.3247 15.5042 59.7216 13.8188 60.3222C12.4822 60.767 11.6405 61.0662 11.2917 61.2242V55.7648C12.3715 55.3533 13.6831 54.7215 15.2264 53.8674C16.7677 53.0112 17.8579 52.236 18.4949 51.5398H24.2674V89.9925H16.8722V59.1356Z" fill="white"/>
<path d="M28.3701 84.8178L37.7202 70.4346L38.2925 69.5784C39.5017 67.7746 40.3914 66.2658 40.9657 65.0459C41.5359 63.8281 41.8241 62.4918 41.8241 61.035C41.8241 59.8005 41.5839 58.8591 41.1077 58.2107C40.6316 57.5623 39.9465 57.2381 39.0568 57.2381C37.7202 57.2381 36.7971 57.7431 36.2896 58.7552C35.78 59.7694 35.5252 61.1618 35.5252 62.9324V64.6905H28.3701V62.7911C28.3701 59.1833 29.2201 56.3279 30.9222 54.2227C32.6223 52.1175 35.2871 51.0659 38.9127 51.0659C42.2522 51.0659 44.7897 51.9429 46.5232 53.7011C48.2566 55.4571 49.1233 57.9489 49.1233 61.1763C49.1233 62.6331 48.8998 64.011 48.455 65.3077C48.0081 66.6045 47.4838 67.76 46.8803 68.7721C46.2746 69.7862 45.3369 71.2244 44.065 73.0926L36.6238 84.2006H48.1208V89.9925H28.3701V84.8178Z" fill="white"/>
<path d="M153.439 138.65C144.448 131.584 132.535 131.439 128.172 132.472L127.667 132.588C122.627 133.773 114.624 135.732 105.258 147.3C105.205 147.362 105.151 147.428 105.101 147.495L104.984 147.638C104.892 147.767 104.827 147.919 104.827 148.089C104.827 148.228 104.861 148.357 104.93 148.476L105.147 148.831C106.323 150.789 107.805 153.308 109.059 155.629C109.069 155.654 109.082 155.673 109.092 155.702C109.226 155.957 109.493 156.138 109.806 156.138C110.023 156.138 110.22 156.053 110.36 155.914C110.418 155.839 110.479 155.758 110.531 155.677C118.845 144.236 125.384 142.655 129.806 141.62L130.336 141.497C132.631 140.949 141.359 140.982 147.66 145.93C152.576 149.793 155.072 155.941 155.072 164.197C155.072 178.05 148.301 183.47 142.618 185.576C133.817 188.851 125.376 184.474 125.313 184.441L124.935 184.258C120.1 182.167 112.885 177.822 106.085 164.231C92.3779 136.84 80.9143 134.259 73.3268 132.551L72.9217 132.459C69.4673 131.68 57.4711 131.129 48.0417 138.619C43.115 142.53 37.2463 150.134 37.2463 164.143C37.2463 172.678 39.009 178.314 43.5368 184.243C44.5309 185.594 54.6809 198.571 74.3063 194.828C77.4474 194.229 81.7016 192.737 86.3819 189.248L90.7009 193.124C90.9828 193.379 91.4318 193.358 91.6908 193.076C91.8161 192.945 91.8662 192.777 91.8642 192.61V192.552L94.9802 173.478L94.9823 173.266C94.9802 173.082 94.905 172.892 94.7504 172.759C94.6189 172.635 94.456 172.587 94.2931 172.587L94.1594 172.599L93.9568 172.62L75.5991 177.735L75.265 177.789C75.1313 177.818 75.0081 177.886 74.9141 177.992C74.6468 178.283 74.6718 178.726 74.9663 178.984L75.1814 179.183L79.2957 182.878C76.6392 184.591 74.323 185.376 72.5562 185.717C58.3587 188.41 51.3477 179.158 51.0825 178.794L50.9822 178.659C47.6845 174.349 46.5693 170.687 46.5693 164.143C46.5693 155.86 49.0212 149.71 53.856 145.868C59.9961 140.992 68.4649 140.963 70.8562 141.506L71.2697 141.599C77.4871 142.998 86.0039 144.916 97.7349 168.366C103.829 180.54 111.462 188.502 121.067 192.7C122.289 193.319 128.122 196.073 135.689 196.073C138.855 196.073 142.322 195.59 145.878 194.275C151.444 192.207 164.395 185.143 164.395 164.197C164.395 150.199 158.436 142.578 153.439 138.65Z" fill="white"/>
<path d="M63.9573 66.2103V51.5154H67.4942C68.4969 51.5154 69.3356 51.6424 70.0102 51.8782C70.703 52.1141 71.2317 52.5132 71.5781 53.0756C71.9427 53.638 72.125 54.4181 72.125 55.3977C72.125 55.9964 72.0703 56.5225 71.9609 56.9942C71.8515 57.4659 71.6692 57.865 71.3958 58.2097C71.1405 58.5363 70.7759 58.7903 70.3201 58.9717L72.3803 66.2103H69.682L67.8953 59.4797H66.6555V66.2103H63.9573ZM66.6555 57.7925H67.4942C68.0229 57.7925 68.424 57.7199 68.7339 57.5748C69.0439 57.4115 69.2809 57.1756 69.4085 56.8491C69.5361 56.5044 69.6091 56.0871 69.6091 55.561C69.6091 54.8172 69.4632 54.2729 69.1897 53.9101C68.9163 53.5291 68.4058 53.3477 67.6401 53.3477H66.6555V57.7925Z" fill="white"/>
<path d="M73.5928 66.2103V51.5154H79.7915V53.4021H76.291V57.6292H79.044V59.4978H76.291V64.3598H79.828V66.2103H73.5928Z" fill="white"/>
<path d="M84.5223 66.4098C83.629 66.4098 82.8997 66.2465 82.2981 65.9018C81.6965 65.5571 81.2589 65.0492 80.949 64.3779C80.639 63.7067 80.4749 62.8903 80.4385 61.9288L82.7539 61.4752C82.7721 62.0376 82.845 62.5456 82.9544 62.981C83.0821 63.4164 83.2461 63.7611 83.4831 63.9969C83.7202 64.2328 84.0483 64.3416 84.4312 64.3416C84.8687 64.3416 85.1787 64.2146 85.361 63.9606C85.5433 63.6885 85.6345 63.362 85.6345 62.9628C85.6345 62.3279 85.4886 61.8018 85.1969 61.3845C84.9052 60.9672 84.5223 60.5681 84.0301 60.1509L82.1705 58.5181C81.6418 58.0645 81.2224 57.5747 80.9125 57.0305C80.6026 56.4681 80.4567 55.7968 80.4567 54.9804C80.4567 53.8193 80.8031 52.9304 81.4777 52.2954C82.1522 51.6605 83.0821 51.3521 84.2671 51.3521C84.9599 51.3521 85.5433 51.4609 85.9991 51.6786C86.4549 51.8782 86.8195 52.1684 87.093 52.5494C87.3665 52.9304 87.5853 53.3477 87.7129 53.8375C87.8405 54.3092 87.9317 54.8171 87.9681 55.3433L85.6709 55.7424C85.6527 55.2888 85.598 54.8716 85.5069 54.5087C85.4339 54.1459 85.2881 53.8556 85.0875 53.6561C84.887 53.4565 84.5953 53.3477 84.2124 53.3477C83.8113 53.3477 83.5014 53.4746 83.2826 53.7468C83.0821 54.0008 82.9727 54.3273 82.9727 54.7083C82.9727 55.1981 83.0821 55.6154 83.2826 55.9419C83.4831 56.2504 83.7931 56.5769 84.1759 56.9216L86.0173 58.5362C86.619 59.0442 87.1477 59.6429 87.567 60.3323C88.0046 61.0035 88.2234 61.838 88.2234 62.7996C88.2234 63.5071 88.0593 64.1239 87.7493 64.6682C87.4394 65.2124 87.0201 65.6478 86.4549 65.9562C85.9079 66.2647 85.2698 66.4098 84.5223 66.4098Z" fill="white"/>
<path d="M89.2168 66.2103V51.5154H93.5559C94.4493 51.5154 95.1603 51.6787 95.7072 52.0052C96.2724 52.3318 96.6735 52.8035 96.9288 53.4384C97.2022 54.0552 97.3298 54.7991 97.3298 55.688C97.3298 56.6495 97.1658 57.4115 96.8376 58.0102C96.5094 58.5907 96.0536 59.008 95.452 59.2801C94.8686 59.5522 94.1758 59.6792 93.3736 59.6792H91.9151V66.2103H89.2168ZM91.9151 57.7925H92.936C93.4283 57.7925 93.7929 57.7199 94.0664 57.5929C94.3399 57.4478 94.5404 57.2301 94.6316 56.9217C94.741 56.6132 94.7957 56.196 94.7957 55.6699C94.7957 55.1438 94.7592 54.7083 94.668 54.3818C94.5951 54.0371 94.431 53.8013 94.1576 53.638C93.9023 53.4747 93.5012 53.4021 92.936 53.4021H91.9151V57.7925Z" fill="white"/>
<path d="M102.243 66.4098C101.204 66.4098 100.366 66.2102 99.7457 65.8293C99.1258 65.4483 98.6882 64.8859 98.4148 64.1602C98.1413 63.4345 98.0137 62.5819 98.0137 61.5841V56.0871C98.0137 55.0893 98.1413 54.2547 98.4148 53.5472C98.6882 52.8397 99.1258 52.2954 99.7457 51.9144C100.366 51.5335 101.204 51.3521 102.243 51.3521C103.319 51.3521 104.158 51.5335 104.759 51.9144C105.379 52.2954 105.817 52.8397 106.09 53.5472C106.364 54.2547 106.51 55.0893 106.51 56.0871V61.6022C106.51 62.5819 106.364 63.4345 106.09 64.1602C105.817 64.8677 105.379 65.4301 104.759 65.8293C104.158 66.2102 103.319 66.4098 102.243 66.4098ZM102.243 64.4323C102.699 64.4323 103.027 64.3416 103.228 64.1421C103.447 63.9425 103.593 63.6885 103.665 63.3438C103.738 62.9991 103.775 62.6363 103.775 62.2372V55.4703C103.775 55.053 103.738 54.6902 103.665 54.3636C103.593 54.037 103.447 53.7831 103.228 53.6016C103.027 53.4021 102.699 53.3114 102.243 53.3114C101.824 53.3114 101.496 53.4021 101.277 53.6016C101.058 53.7831 100.912 54.037 100.84 54.3636C100.767 54.6902 100.73 55.053 100.73 55.4703V62.2372C100.73 62.6363 100.767 62.9991 100.821 63.3438C100.894 63.6885 101.04 63.9425 101.259 64.1421C101.478 64.3416 101.806 64.4323 102.243 64.4323Z" fill="white"/>
<path d="M107.904 66.2103V51.5154H109.782L113.374 59.8969V51.5154H115.598V66.2103H113.811L110.201 57.4296V66.2103H107.904Z" fill="white"/>
<path d="M120.968 66.4098C120.074 66.4098 119.345 66.2465 118.743 65.9018C118.142 65.5571 117.704 65.0492 117.394 64.3779C117.084 63.7067 116.92 62.8903 116.884 61.9288L119.199 61.4752C119.217 62.0376 119.29 62.5456 119.4 62.981C119.527 63.4164 119.691 63.7611 119.928 63.9969C120.165 64.2328 120.494 64.3416 120.877 64.3416C121.314 64.3416 121.624 64.2146 121.806 63.9606C121.989 63.6885 122.08 63.362 122.08 62.9628C122.08 62.3279 121.934 61.8018 121.642 61.3845C121.351 60.9672 120.968 60.5681 120.475 60.1509L118.616 58.5181C118.087 58.0645 117.668 57.5747 117.358 57.0305C117.048 56.4681 116.902 55.7968 116.902 54.9804C116.902 53.8193 117.248 52.9304 117.923 52.2954C118.598 51.6605 119.527 51.3521 120.712 51.3521C121.405 51.3521 121.989 51.4609 122.444 51.6786C122.9 51.8782 123.265 52.1684 123.538 52.5494C123.812 52.9304 124.031 53.3477 124.158 53.8375C124.286 54.3092 124.377 54.8171 124.413 55.3433L122.116 55.7424C122.098 55.2888 122.043 54.8716 121.952 54.5087C121.879 54.1459 121.733 53.8556 121.533 53.6561C121.332 53.4565 121.041 53.3477 120.658 53.3477C120.257 53.3477 119.947 53.4746 119.728 53.7468C119.527 54.0008 119.418 54.3273 119.418 54.7083C119.418 55.1981 119.527 55.6154 119.728 55.9419C119.928 56.2504 120.238 56.5769 120.621 56.9216L122.463 58.5362C123.064 59.0442 123.593 59.6429 124.012 60.3323C124.45 61.0035 124.669 61.838 124.669 62.7996C124.669 63.5071 124.505 64.1239 124.195 64.6682C123.885 65.2124 123.465 65.6478 122.9 65.9562C122.353 66.2647 121.715 66.4098 120.968 66.4098Z" fill="white"/>
<path d="M128.397 51.5154H125.735V66.2103H128.397V51.5154Z" fill="white"/>
<path d="M130.083 66.2103V51.5154H133.712C134.368 51.5154 134.951 51.5698 135.48 51.6968C136.009 51.8238 136.465 52.0234 136.847 52.3136C137.23 52.5858 137.54 52.9667 137.741 53.4566C137.941 53.9464 138.051 54.5451 138.051 55.2889C138.051 55.8876 137.96 56.3955 137.795 56.8128C137.631 57.2301 137.394 57.5748 137.084 57.8287C136.774 58.0646 136.373 58.2279 135.899 58.3186C136.483 58.4093 136.957 58.627 137.34 58.9354C137.723 59.2438 138.014 59.6429 138.197 60.1328C138.397 60.6226 138.488 61.2213 138.488 61.9288C138.488 62.6363 138.397 63.2532 138.215 63.7974C138.051 64.3235 137.777 64.7771 137.431 65.1399C137.084 65.4846 136.665 65.7567 136.136 65.9382C135.626 66.1196 135.024 66.2103 134.331 66.2103H130.083ZM132.782 64.3235H133.803C134.623 64.3235 135.17 64.124 135.462 63.743C135.754 63.3439 135.899 62.7271 135.899 61.9107C135.899 61.312 135.826 60.8403 135.681 60.4775C135.553 60.0965 135.316 59.8244 134.988 59.6429C134.678 59.4615 134.24 59.3708 133.712 59.3708H132.782V64.3235ZM132.782 57.5203H133.693C134.222 57.5203 134.641 57.4478 134.933 57.2845C135.225 57.1212 135.425 56.8854 135.535 56.5588C135.662 56.2323 135.717 55.815 135.717 55.3252C135.717 54.7991 135.626 54.3999 135.444 54.1278C135.279 53.8375 135.006 53.638 134.66 53.5473C134.313 53.4384 133.857 53.384 133.31 53.384H132.782V57.5203Z" fill="white"/>
<path d="M139.646 66.2103V51.5154H142.344V64.3598H145.917V66.2103H139.646Z" fill="white"/>
<path d="M146.729 66.2103V51.5154H152.927V53.4021H149.427V57.6292H152.18V59.4978H149.427V64.3598H152.964V66.2103H146.729Z" fill="white"/>
<path d="M67.9318 90.4249C66.8561 90.4249 65.9992 90.2072 65.3794 89.79C64.7777 89.3727 64.3402 88.7922 64.1032 88.0665C63.8661 87.3227 63.7385 86.4881 63.7385 85.5266V80.2836C63.7385 79.2858 63.8661 78.415 64.1032 77.6712C64.3402 76.9274 64.7777 76.365 65.3794 75.9659C65.9992 75.5667 66.8561 75.3672 67.9318 75.3672C68.9528 75.3672 69.7549 75.5486 70.3201 75.8933C70.9035 76.238 71.3229 76.7278 71.5599 77.3628C71.7969 77.9978 71.9245 78.7416 71.9245 79.5942V80.8279H69.3356V79.558C69.3356 79.1407 69.3174 78.7779 69.2627 78.4332C69.2262 78.0885 69.1168 77.8345 68.9163 77.6349C68.734 77.4354 68.4058 77.3265 67.95 77.3265C67.4942 77.3265 67.1478 77.4354 66.9291 77.6531C66.7285 77.8526 66.5827 78.1429 66.528 78.5057C66.4733 78.8504 66.4368 79.2495 66.4368 79.7031V86.089C66.4368 86.6151 66.4733 87.0687 66.5644 87.4134C66.6556 87.7581 66.8014 88.0121 67.0202 88.1935C67.2572 88.3568 67.5672 88.4475 67.95 88.4475C68.4058 88.4475 68.7157 88.3386 68.8981 88.1391C69.0986 87.9214 69.208 87.6311 69.2627 87.2864C69.3174 86.9417 69.3356 86.5426 69.3356 86.1072V84.7828H71.9245V85.962C71.9245 86.8328 71.8151 87.6129 71.5781 88.2842C71.3411 88.9554 70.94 89.4816 70.3566 89.8625C69.7914 90.2435 68.971 90.4249 67.9318 90.4249Z" fill="white"/>
<path d="M77.2207 90.4249C76.1815 90.4249 75.3428 90.2254 74.723 89.8444C74.1031 89.4634 73.6655 88.901 73.3921 88.1753C73.1186 87.4497 72.991 86.597 72.991 85.5992V80.1022C72.991 79.1044 73.1186 78.2699 73.3921 77.5624C73.6655 76.8548 74.1031 76.3106 74.723 75.9296C75.3428 75.5486 76.1815 75.3672 77.2207 75.3672C78.2964 75.3672 79.135 75.5486 79.7366 75.9296C80.3565 76.3106 80.7941 76.8548 81.0676 77.5624C81.341 78.2699 81.4869 79.1044 81.4869 80.1022V85.6173C81.4869 86.597 81.341 87.4497 81.0676 88.1753C80.7941 88.8829 80.3565 89.4453 79.7366 89.8444C79.135 90.2254 78.2964 90.4249 77.2207 90.4249ZM77.2207 88.4475C77.6765 88.4475 78.0047 88.3568 78.2052 88.1572C78.424 87.9576 78.5698 87.7037 78.6428 87.359C78.7157 87.0143 78.7521 86.6514 78.7521 86.2523V79.4854C78.7521 79.0681 78.7157 78.7053 78.6428 78.3787C78.5698 78.0522 78.424 77.7982 78.2052 77.6168C78.0047 77.4172 77.6765 77.3265 77.2207 77.3265C76.8014 77.3265 76.4732 77.4172 76.2544 77.6168C76.0356 77.7982 75.8898 78.0522 75.8169 78.3787C75.7439 78.7053 75.7075 79.0681 75.7075 79.4854V86.2523C75.7075 86.6514 75.7439 87.0143 75.7986 87.359C75.8716 87.7037 76.0174 87.9576 76.2362 88.1572C76.455 88.3568 76.7831 88.4475 77.2207 88.4475Z" fill="white"/>
<path d="M82.8816 90.2254V75.5305H84.7594L88.3511 83.9121V75.5305H90.5753V90.2254H88.7886L85.1788 81.4448V90.2254H82.8816Z" fill="white"/>
<path d="M95.9442 90.4249C95.0509 90.4249 94.3216 90.2617 93.72 89.917C93.1183 89.5723 92.6808 89.0643 92.3708 88.393C92.0609 87.7218 91.8968 86.9054 91.8604 85.9439L94.1758 85.4903C94.194 86.0527 94.2669 86.5607 94.3763 86.9961C94.5039 87.4315 94.668 87.7762 94.905 88.0121C95.142 88.2479 95.4702 88.3568 95.8531 88.3568C96.2906 88.3568 96.6006 88.2298 96.7829 87.9758C96.9652 87.7037 97.0564 87.3771 97.0564 86.978C97.0564 86.343 96.9105 85.8169 96.6188 85.3996C96.3271 84.9824 95.9442 84.5833 95.452 84.166L93.5924 82.5332C93.0636 82.0797 92.6443 81.5898 92.3344 81.0456C92.0244 80.4832 91.8786 79.8119 91.8786 78.9956C91.8786 77.8345 92.225 76.9455 92.8996 76.3106C93.5741 75.6756 94.5039 75.3672 95.689 75.3672C96.3818 75.3672 96.9652 75.476 97.421 75.6937C97.8768 75.8933 98.2414 76.1836 98.5149 76.5645C98.7883 76.9455 99.0071 77.3628 99.1347 77.8526C99.2624 78.3243 99.3535 78.8323 99.39 79.3584L97.0928 79.7575C97.0746 79.304 97.0199 78.8867 96.9287 78.5239C96.8558 78.161 96.71 77.8708 96.5094 77.6712C96.3089 77.4716 96.0172 77.3628 95.6343 77.3628C95.2332 77.3628 94.9233 77.4898 94.7045 77.7619C94.5039 78.0159 94.3945 78.3425 94.3945 78.7234C94.3945 79.2133 94.5039 79.6305 94.7045 79.9571C94.905 80.2655 95.215 80.592 95.5978 80.9367L97.4392 82.5514C98.0409 83.0593 98.5696 83.658 98.9889 84.3474C99.4265 85.0187 99.6452 85.8532 99.6452 86.8147C99.6452 87.5222 99.4811 88.1391 99.1712 88.6833C98.8613 89.2276 98.4419 89.663 97.8768 89.9714C97.3298 90.2798 96.6917 90.4249 95.9442 90.4249Z" fill="white"/>
<path d="M104.687 90.425C103.593 90.425 102.736 90.2254 102.134 89.8263C101.533 89.4272 101.113 88.8648 100.876 88.121C100.639 87.3772 100.53 86.5063 100.53 85.4723V75.5305H103.155V85.7807C103.155 86.2342 103.192 86.6696 103.246 87.0869C103.301 87.486 103.447 87.8126 103.666 88.0665C103.903 88.3024 104.231 88.4294 104.687 88.4294C105.161 88.4294 105.507 88.3024 105.708 88.0665C105.926 87.8126 106.072 87.486 106.127 87.0869C106.2 86.6696 106.236 86.2342 106.236 85.7807V75.5305H108.843V85.4723C108.843 86.5063 108.734 87.3772 108.497 88.121C108.26 88.8648 107.841 89.4272 107.239 89.8263C106.637 90.2254 105.799 90.425 104.687 90.425Z" fill="white"/>
<path d="M110.33 90.2254L110.585 75.5305H113.374L115.471 85.7081L117.659 75.5305H120.357L120.63 90.2254H118.625L118.406 80.0116L116.31 90.2254H114.687L112.554 79.9753L112.353 90.2254H110.33Z" fill="white"/>
<path d="M122.225 90.2254V75.5305H126.564C127.458 75.5305 128.169 75.6938 128.716 76.0203C129.281 76.3469 129.682 76.8186 129.937 77.4536C130.211 78.0704 130.338 78.8142 130.338 79.7031C130.338 80.6647 130.174 81.4266 129.846 82.0253C129.518 82.6058 129.062 83.0231 128.461 83.2952C127.877 83.5674 127.184 83.6944 126.382 83.6944H124.924V90.2254H122.225ZM124.924 81.8076H125.945C126.437 81.8076 126.801 81.735 127.075 81.608C127.348 81.4629 127.549 81.2452 127.64 80.9368C127.75 80.6284 127.804 80.2111 127.804 79.685C127.804 79.1589 127.768 78.7235 127.677 78.3969C127.604 78.0522 127.44 77.8164 127.166 77.6531C126.911 77.4898 126.51 77.4173 125.945 77.4173H124.924V81.8076Z" fill="white"/>
<path d="M132.717 90.2254V77.508H130.365V75.5305H137.731V77.508H135.416V90.2254H132.717Z" fill="white"/>
<path d="M141.223 75.5305H138.561V90.2254H141.223V75.5305Z" fill="white"/>
<path d="M146.92 90.4249C145.881 90.4249 145.043 90.2254 144.423 89.8444C143.803 89.4634 143.365 88.901 143.092 88.1753C142.818 87.4497 142.691 86.597 142.691 85.5992V80.1022C142.691 79.1044 142.818 78.2699 143.092 77.5624C143.365 76.8548 143.803 76.3106 144.423 75.9296C145.043 75.5486 145.881 75.3672 146.92 75.3672C147.996 75.3672 148.835 75.5486 149.436 75.9296C150.056 76.3106 150.494 76.8548 150.767 77.5624C151.041 78.2699 151.187 79.1044 151.187 80.1022V85.6173C151.187 86.597 151.041 87.4497 150.767 88.1753C150.494 88.8829 150.056 89.4453 149.436 89.8444C148.835 90.2254 147.996 90.4249 146.92 90.4249ZM146.92 88.4475C147.376 88.4475 147.704 88.3568 147.905 88.1572C148.124 87.9576 148.27 87.7037 148.342 87.359C148.415 87.0143 148.452 86.6514 148.452 86.2523V79.4854C148.452 79.0681 148.415 78.7053 148.342 78.3787C148.27 78.0522 148.124 77.7982 147.905 77.6168C147.704 77.4172 147.376 77.3265 146.92 77.3265C146.501 77.3265 146.173 77.4172 145.954 77.6168C145.735 77.7982 145.589 78.0522 145.517 78.3787C145.444 78.7053 145.407 79.0681 145.407 79.4854V86.2523C145.407 86.6514 145.444 87.0143 145.498 87.359C145.571 87.7037 145.717 87.9576 145.936 88.1572C146.155 88.3568 146.483 88.4475 146.92 88.4475Z" fill="white"/>
<path d="M152.581 90.2254V75.5305H154.459L158.051 83.9121V75.5305H160.275V90.2254H158.488L154.878 81.4448V90.2254H152.581Z" fill="white"/>
<path d="M63.2097 114.241L66.1632 99.5459H69.0438L71.9973 114.241H69.4996L68.9162 110.848H66.3455L65.7439 114.241H63.2097ZM66.619 109.143H68.6245L67.6218 102.975L66.619 109.143Z" fill="white"/>
<path d="M72.8816 114.241V99.5459H74.7594L78.3511 107.927V99.5459H80.5753V114.241H78.7886L75.1788 105.46V114.241H72.8816Z" fill="white"/>
<path d="M82.2249 114.241V99.5459H85.7071C86.9104 99.5459 87.8402 99.7092 88.5147 100.036C89.1893 100.362 89.6816 100.87 89.955 101.542C90.2467 102.213 90.3926 103.084 90.3926 104.118V109.488C90.3926 110.558 90.2467 111.447 89.955 112.154C89.6816 112.862 89.2075 113.388 88.533 113.733C87.8766 114.078 86.9651 114.241 85.8165 114.241H82.2249ZM84.9231 112.372H85.7435C86.3634 112.372 86.801 112.263 87.0745 112.046C87.3479 111.828 87.512 111.52 87.5667 111.102C87.6214 110.685 87.6579 110.159 87.6579 109.56V103.936C87.6579 103.338 87.6214 102.866 87.5302 102.503C87.4391 102.14 87.275 101.868 87.0015 101.705C86.7281 101.542 86.3087 101.451 85.7071 101.451H84.9231V112.372Z" fill="white"/>
<path d="M95.6255 114.241V99.5459H99.9646C100.858 99.5459 101.569 99.7092 102.116 100.036C102.681 100.362 103.082 100.834 103.337 101.469C103.611 102.086 103.739 102.83 103.739 103.719C103.739 104.68 103.574 105.442 103.246 106.041C102.918 106.621 102.462 107.038 101.861 107.311C101.277 107.583 100.584 107.71 99.7823 107.71H98.3238V114.241H95.6255ZM98.3238 105.823H99.3447C99.837 105.823 100.202 105.75 100.475 105.623C100.749 105.478 100.949 105.261 101.04 104.952C101.15 104.644 101.204 104.226 101.204 103.7C101.204 103.174 101.168 102.739 101.077 102.412C101.004 102.068 100.84 101.832 100.566 101.668C100.311 101.505 99.9099 101.433 99.3447 101.433H98.3238V105.823Z" fill="white"/>
<path d="M104.641 114.241V99.5459H108.178C109.181 99.5459 110.019 99.6729 110.694 99.9087C111.387 100.145 111.915 100.544 112.262 101.106C112.626 101.668 112.809 102.449 112.809 103.428C112.809 104.027 112.754 104.553 112.645 105.025C112.535 105.496 112.353 105.896 112.079 106.24C111.824 106.567 111.459 106.821 111.004 107.002L113.064 114.241H110.366L108.579 107.51H107.339V114.241H104.641ZM107.339 105.823H108.178C108.707 105.823 109.108 105.75 109.418 105.605C109.727 105.442 109.964 105.206 110.092 104.88C110.22 104.535 110.293 104.118 110.293 103.592C110.293 102.848 110.147 102.303 109.873 101.941C109.6 101.56 109.089 101.378 108.324 101.378H107.339V105.823Z" fill="white"/>
<path d="M118.233 114.441C117.194 114.441 116.355 114.241 115.735 113.86C115.115 113.479 114.678 112.917 114.404 112.191C114.131 111.465 114.003 110.613 114.003 109.615V104.118C114.003 103.12 114.131 102.286 114.404 101.578C114.678 100.87 115.115 100.326 115.735 99.9452C116.355 99.5642 117.194 99.3828 118.233 99.3828C119.309 99.3828 120.147 99.5642 120.749 99.9452C121.369 100.326 121.806 100.87 122.08 101.578C122.353 102.286 122.499 103.12 122.499 104.118V109.633C122.499 110.613 122.353 111.465 122.08 112.191C121.806 112.898 121.369 113.461 120.749 113.86C120.147 114.241 119.309 114.441 118.233 114.441ZM118.233 112.463C118.689 112.463 119.017 112.372 119.217 112.173C119.436 111.973 119.582 111.719 119.655 111.375C119.728 111.03 119.764 110.667 119.764 110.268V103.501C119.764 103.084 119.728 102.721 119.655 102.394C119.582 102.068 119.436 101.814 119.217 101.632C119.017 101.433 118.689 101.342 118.233 101.342C117.814 101.342 117.485 101.433 117.267 101.632C117.048 101.814 116.902 102.068 116.829 102.394C116.756 102.721 116.72 103.084 116.72 103.501V110.268C116.72 110.667 116.756 111.03 116.811 111.375C116.884 111.719 117.03 111.973 117.248 112.173C117.467 112.372 117.795 112.463 118.233 112.463Z" fill="white"/>
<path d="M123.894 114.241V99.5459H127.376C128.579 99.5459 129.509 99.7092 130.183 100.036C130.858 100.362 131.35 100.87 131.624 101.542C131.915 102.213 132.061 103.084 132.061 104.118V109.488C132.061 110.558 131.915 111.447 131.624 112.154C131.35 112.862 130.876 113.388 130.202 113.733C129.545 114.078 128.634 114.241 127.485 114.241H123.894ZM126.592 112.372H127.412C128.032 112.372 128.47 112.263 128.743 112.046C129.017 111.828 129.181 111.52 129.235 111.102C129.29 110.685 129.327 110.159 129.327 109.56V103.936C129.327 103.338 129.29 102.866 129.199 102.503C129.108 102.14 128.944 101.868 128.67 101.705C128.397 101.542 127.977 101.451 127.376 101.451H126.592V112.372Z" fill="white"/>
<path d="M137.504 114.44C136.41 114.44 135.553 114.241 134.951 113.842C134.35 113.443 133.93 112.88 133.693 112.136C133.456 111.393 133.347 110.522 133.347 109.488V99.5459H135.972V109.796C135.972 110.25 136.009 110.685 136.063 111.102C136.118 111.501 136.264 111.828 136.483 112.082C136.72 112.318 137.048 112.445 137.504 112.445C137.978 112.445 138.324 112.318 138.525 112.082C138.743 111.828 138.889 111.501 138.944 111.102C139.017 110.685 139.053 110.25 139.053 109.796V99.5459H141.661V109.488C141.661 110.522 141.551 111.393 141.314 112.136C141.077 112.88 140.658 113.443 140.056 113.842C139.455 114.241 138.616 114.44 137.504 114.44Z" fill="white"/>
<path d="M147.157 114.441C146.081 114.441 145.224 114.223 144.604 113.806C144.003 113.388 143.565 112.808 143.328 112.082C143.091 111.338 142.964 110.504 142.964 109.542V104.299C142.964 103.301 143.091 102.431 143.328 101.687C143.565 100.943 144.003 100.381 144.604 99.9815C145.224 99.5824 146.081 99.3828 147.157 99.3828C148.178 99.3828 148.98 99.5642 149.545 99.9089C150.129 100.254 150.548 100.743 150.785 101.378C151.022 102.013 151.15 102.757 151.15 103.61V104.844H148.561V103.574C148.561 103.156 148.542 102.793 148.488 102.449C148.451 102.104 148.342 101.85 148.141 101.651C147.959 101.451 147.631 101.342 147.175 101.342C146.719 101.342 146.373 101.451 146.154 101.669C145.954 101.868 145.808 102.159 145.753 102.521C145.698 102.866 145.662 103.265 145.662 103.719V110.105C145.662 110.631 145.698 111.084 145.79 111.429C145.881 111.774 146.027 112.028 146.245 112.209C146.482 112.372 146.792 112.463 147.175 112.463C147.631 112.463 147.941 112.354 148.123 112.155C148.324 111.937 148.433 111.647 148.488 111.302C148.542 110.957 148.561 110.558 148.561 110.123V108.798H151.15V109.978C151.15 110.848 151.04 111.629 150.803 112.3C150.566 112.971 150.165 113.497 149.582 113.878C149.017 114.259 148.196 114.441 147.157 114.441Z" fill="white"/>
<path d="M153.912 114.241V101.523H151.56V99.5459H158.925V101.523H156.61V114.241H153.912Z" fill="white"/>
<path d="M162.417 99.5459H159.755V114.241H162.417V99.5459Z" fill="white"/>
<path d="M168.114 114.441C167.075 114.441 166.236 114.241 165.617 113.86C164.997 113.479 164.559 112.917 164.286 112.191C164.012 111.465 163.885 110.613 163.885 109.615V104.118C163.885 103.12 164.012 102.286 164.286 101.578C164.559 100.87 164.997 100.326 165.617 99.9452C166.236 99.5642 167.075 99.3828 168.114 99.3828C169.19 99.3828 170.029 99.5642 170.63 99.9452C171.25 100.326 171.688 100.87 171.961 101.578C172.235 102.286 172.38 103.12 172.38 104.118V109.633C172.38 110.613 172.235 111.465 171.961 112.191C171.688 112.898 171.25 113.461 170.63 113.86C170.029 114.241 169.19 114.441 168.114 114.441ZM168.114 112.463C168.57 112.463 168.898 112.372 169.099 112.173C169.318 111.973 169.463 111.719 169.536 111.375C169.609 111.03 169.646 110.667 169.646 110.268V103.501C169.646 103.084 169.609 102.721 169.536 102.394C169.463 102.068 169.318 101.814 169.099 101.632C168.898 101.433 168.57 101.342 168.114 101.342C167.695 101.342 167.367 101.433 167.148 101.632C166.929 101.814 166.783 102.068 166.71 102.394C166.637 102.721 166.601 103.084 166.601 103.501V110.268C166.601 110.667 166.637 111.03 166.692 111.375C166.765 111.719 166.911 111.973 167.13 112.173C167.349 112.372 167.677 112.463 168.114 112.463Z" fill="white"/>
<path d="M173.775 114.241V99.5459H175.653L179.245 107.927V99.5459H181.469V114.241H179.682L176.072 105.46V114.241H173.775Z" fill="white"/>
</g>
</g>
<defs>
<clipPath id="clip0_34_198">
<path d="M0 30C0 13.4315 13.4315 0 30 0H202V251C202 267.569 188.569 281 172 281H0V30Z" fill="white"/>
</clipPath>
<clipPath id="clip1_34_198">
<rect width="203" height="192" fill="white" transform="translate(-0.5 44)"/>
</clipPath>
</defs>
</svg>
